<svg width="157" height="61" viewBox="0 0 157 61" fill="none" xmlns="http://www.w3.org/2000/svg">
<path fill-rule="evenodd" clip-rule="evenodd" d="M0 31.4999C0 17.9906 11.2149 7 24.9999 7C38.7851 7 50 17.9906 50 31.4999C50 45.0094 38.7851 56 24.9999 56C11.2149 56 0 45.0094 0 31.4999ZM1.32476 31.4999C1.32476 44.2934 11.9453 54.7019 24.9999 54.7019C38.0547 54.7019 48.6754 44.2934 48.6754 31.4999C48.6754 18.7064 38.0547 8.29827 24.9999 8.29827C11.9453 8.29827 1.32476 18.7064 1.32476 31.4999Z" fill="#B8B8B8"/>
<path fill-rule="evenodd" clip-rule="evenodd" d="M4 31.4999C4 20.1964 13.4207 11 25.0002 11C36.5795 11 46.0002 20.1964 46 31.4999C46 42.8036 36.5795 52 25.0002 52C13.4207 52 4 42.8038 4 31.4999ZM5.36854 31.5001C5.36854 42.0673 14.1754 50.6642 25.0002 50.6642C35.8251 50.6642 44.6317 42.0673 44.6317 31.4999C44.6317 20.9328 35.8249 12.3361 25.0002 12.3361C14.1754 12.3361 5.36854 20.933 5.36854 31.5001Z" fill="#B8B8B8"/>
<path fill-rule="evenodd" clip-rule="evenodd" d="M67 9.91008C67 4.44549 63.6355 0 59.4999 0C55.3643 0 52 4.44549 52 9.91008C52 15.0789 55.0106 19.3337 58.8363 19.7792V26.9118H57.2587V61H61.7408V26.9117H60.1633V19.779C63.9892 19.3335 67 15.0789 67 9.91008ZM60.414 28.228V59.6835H58.586V28.228H60.414ZM53.3273 9.90989C53.3273 14.6486 56.0963 18.504 59.4999 18.504C62.9037 18.504 65.6728 14.6486 65.6728 9.90989C65.6728 5.1712 62.9037 1.31579 59.4999 1.31579C56.0963 1.31579 53.3273 5.1712 53.3273 9.90989Z" fill="#B8B8B8"/>
<path d="M92 24V38" stroke="#50C6C7" stroke-width="2" stroke-linecap="round" stroke-linejoin="round"/>
<path d="M85 31H99" stroke="#50C6C7" stroke-width="2" stroke-linecap="round" stroke-linejoin="round"/>
<path fill-rule="evenodd" clip-rule="evenodd" d="M117.883 31.4445H126.423C126.879 31.4445 127.249 31.0797 127.249 30.6299V23.4337C127.249 20.6636 124.963 18.4099 122.153 18.4099C119.343 18.4099 117.056 20.6636 117.056 23.4337V30.6299C117.056 31.0797 117.426 31.4445 117.883 31.4445ZM125.596 29.8152H118.709H118.709V23.4337C118.709 21.5619 120.254 20.0392 122.153 20.0392C124.052 20.0392 125.596 21.562 125.596 23.4337V29.8152Z" fill="#B8B8B8"/>
<path fill-rule="evenodd" clip-rule="evenodd" d="M117.056 37.826C117.056 40.5961 119.343 42.8498 122.153 42.8498C124.963 42.8498 127.249 40.5961 127.249 37.826V30.6298C127.249 30.1799 126.879 29.8152 126.423 29.8152H117.883C117.426 29.8152 117.056 30.1799 117.056 30.6298V37.826ZM118.709 37.826V31.4446H125.596V37.826C125.596 39.6978 124.052 41.2204 122.153 41.2204C120.254 41.2204 118.709 39.6978 118.709 37.826Z" fill="#B8B8B8"/>
<path fill-rule="evenodd" clip-rule="evenodd" d="M136.148 44.4592C136.303 44.612 136.513 44.6978 136.733 44.6978C136.952 44.6978 137.162 44.612 137.317 44.4592L143.356 38.5066C143.51 38.3538 143.598 38.1466 143.598 37.9306C143.598 37.7145 143.51 37.5074 143.356 37.3545L138.216 32.2887C137.254 31.3399 135.974 30.8173 134.613 30.8173C133.251 30.8173 131.972 31.3399 131.009 32.2887C130.047 33.2375 129.516 34.4991 129.516 35.841C129.516 37.1829 130.047 38.4445 131.009 39.3933L136.148 44.4592ZM132.178 33.4408C132.828 32.7997 133.693 32.4466 134.613 32.4466C135.533 32.4466 136.397 32.7997 137.048 33.4408L141.602 37.9305L136.732 42.731L132.178 38.2412C131.527 37.6002 131.169 36.7477 131.169 35.841C131.169 34.9343 131.527 34.0819 132.178 33.4408Z" fill="#B8B8B8"/>
<path fill-rule="evenodd" clip-rule="evenodd" d="M141.287 49.525C142.25 50.4738 143.529 50.9964 144.891 50.9964C146.252 50.9964 147.532 50.4738 148.494 49.5249C149.457 48.576 149.987 47.3145 149.987 45.9725C149.987 44.6307 149.457 43.3691 148.494 42.4203L143.355 37.3544C143.2 37.2016 142.99 37.1158 142.771 37.1158C142.552 37.1158 142.342 37.2016 142.187 37.3544L136.148 43.307C135.825 43.6252 135.825 44.141 136.148 44.4591L141.287 49.525ZM142.456 48.3729L137.901 43.8832L142.771 39.0827L147.326 43.5725C147.976 44.2135 148.334 45.066 148.334 45.9726C148.334 46.8793 147.976 47.7318 147.326 48.3729C146.675 49.014 145.811 49.3671 144.891 49.3671C143.971 49.3671 143.106 49.014 142.456 48.3729Z" fill="#B8B8B8"/>
<path fill-rule="evenodd" clip-rule="evenodd" d="M149.307 24.6153C149.468 24.7744 149.679 24.8539 149.891 24.8539C150.103 24.8539 150.314 24.7743 150.475 24.6153L155.508 19.654C157.495 17.6953 157.495 14.5081 155.508 12.5494C154.546 11.6005 153.266 11.0779 151.905 11.0779C150.543 11.0779 149.264 11.6005 148.301 12.5494L143.268 17.5107C143.113 17.6634 143.026 17.8707 143.026 18.0867C143.026 18.3028 143.113 18.51 143.268 18.6628L149.307 24.6153ZM149.891 22.8871L145.021 18.0867L149.47 13.7014C150.12 13.0603 150.985 12.7072 151.905 12.7072C152.825 12.7072 153.689 13.0603 154.34 13.7014C155.682 15.0249 155.682 17.1784 154.34 18.5019L149.891 22.8871Z" fill="#B8B8B8"/>
<path fill-rule="evenodd" clip-rule="evenodd" d="M138.235 29.5766C139.197 30.5254 140.477 31.048 141.839 31.048C143.2 31.048 144.48 30.5255 145.442 29.5766L150.475 24.6153C150.63 24.4625 150.717 24.2553 150.717 24.0392C150.717 23.8232 150.63 23.6159 150.475 23.4632L144.437 17.5107C144.114 17.1925 143.591 17.1926 143.268 17.5107L138.235 22.472C136.248 24.4307 136.248 27.6179 138.235 29.5766ZM139.404 23.624L143.852 19.2388L148.722 24.0392L144.273 28.4245C143.623 29.0656 142.758 29.4187 141.839 29.4187C140.919 29.4187 140.054 29.0656 139.404 28.4245C138.061 27.101 138.061 24.9475 139.404 23.624Z" fill="#B8B8B8"/>
</svg>
