<svg width="157" height="61" viewBox="0 0 157 61" fill="none" xmlns="http://www.w3.org/2000/svg">
<path fill-rule="evenodd" clip-rule="evenodd" d="M0.882721 31.4445H9.42264C9.87908 31.4445 10.2491 31.0797 10.2492 30.6299V23.4337C10.2492 20.6636 7.96289 18.4099 5.15272 18.4099C2.34256 18.4099 0.0562744 20.6636 0.0562744 23.4337V30.6299C0.0562744 31.0797 0.426274 31.4445 0.882721 31.4445ZM8.59619 29.8152H1.70917H1.70908V23.4337C1.70908 21.5619 3.2538 20.0392 5.15264 20.0392C7.05148 20.0392 8.59619 21.562 8.59619 23.4337V29.8152Z" fill="#B8B8B8"/>
<path fill-rule="evenodd" clip-rule="evenodd" d="M0.0562744 37.826C0.0562744 40.5961 2.34256 42.8498 5.15272 42.8498C7.96289 42.8498 10.2491 40.5961 10.2491 37.826V30.6298C10.2491 30.1799 9.87908 29.8152 9.42264 29.8152H0.882721C0.426274 29.8152 0.0562744 30.1799 0.0562744 30.6298V37.826ZM1.70917 37.826V31.4446H8.59627V37.826C8.59627 39.6978 7.05148 41.2204 5.15272 41.2204C3.25396 41.2204 1.70917 39.6978 1.70917 37.826Z" fill="#B8B8B8"/>
<path fill-rule="evenodd" clip-rule="evenodd" d="M19.1482 44.4592C19.3031 44.612 19.5134 44.6978 19.7326 44.6978C19.9517 44.6978 20.1619 44.612 20.3169 44.4592L26.3555 38.5066C26.5105 38.3538 26.5976 38.1466 26.5976 37.9306C26.5976 37.7145 26.5105 37.5074 26.3555 37.3545L21.2164 32.2887C20.2538 31.3399 18.974 30.8173 17.6127 30.8173C16.2515 30.8173 14.9716 31.3399 14.0091 32.2887C13.0465 33.2375 12.5164 34.4991 12.5164 35.841C12.5164 37.1829 13.0465 38.4445 14.0091 39.3933L19.1482 44.4592ZM15.1778 33.4408C15.8282 32.7997 16.693 32.4466 17.6127 32.4466C18.5326 32.4466 19.3973 32.7997 20.0476 33.4408L24.6023 37.9305L19.7325 42.731L15.1778 38.2412C14.5273 37.6002 14.1692 36.7477 14.1692 35.841C14.1692 34.9343 14.5273 34.0819 15.1778 33.4408Z" fill="#B8B8B8"/>
<path fill-rule="evenodd" clip-rule="evenodd" d="M24.2871 49.525C25.2497 50.4738 26.5295 50.9964 27.8908 50.9964C29.2522 50.9964 30.532 50.4738 31.4945 49.5249C32.4571 48.576 32.9872 47.3145 32.9872 45.9725C32.9872 44.6307 32.457 43.3691 31.4945 42.4203L26.3554 37.3544C26.2004 37.2016 25.9902 37.1158 25.771 37.1158C25.5519 37.1158 25.3417 37.2016 25.1866 37.3544L19.1481 43.307C18.8253 43.6252 18.8253 44.141 19.1481 44.4591L24.2871 49.525ZM25.4559 48.3729L20.9012 43.8832L25.7711 39.0827L30.3257 43.5725C30.9762 44.2135 31.3343 45.066 31.3343 45.9726C31.3343 46.8793 30.9762 47.7318 30.3257 48.3729C29.6754 49.014 28.8106 49.3671 27.8908 49.3671C26.971 49.3671 26.1062 49.014 25.4559 48.3729Z" fill="#B8B8B8"/>
<path fill-rule="evenodd" clip-rule="evenodd" d="M32.3066 24.6153C32.468 24.7744 32.6794 24.8539 32.891 24.8539C33.1026 24.8539 33.3141 24.7743 33.4754 24.6153L38.5084 19.654C40.4954 17.6953 40.4954 14.5081 38.5084 12.5494C37.5458 11.6005 36.266 11.0779 34.9047 11.0779C33.5434 11.0779 32.2636 11.6005 31.301 12.5494L26.2679 17.5107C26.113 17.6634 26.0259 17.8707 26.0259 18.0867C26.0259 18.3028 26.113 18.51 26.2679 18.6628L32.3066 24.6153ZM32.8911 22.8871L28.0212 18.0867L32.4698 13.7014C33.1202 13.0603 33.985 12.7072 34.9048 12.7072C35.8246 12.7072 36.6893 13.0603 37.3397 13.7014C38.6823 15.0249 38.6823 17.1784 37.3397 18.5019L32.8911 22.8871Z" fill="#B8B8B8"/>
<path fill-rule="evenodd" clip-rule="evenodd" d="M21.2349 29.5766C22.1975 30.5254 23.4772 31.048 24.8385 31.048C26.1999 31.048 27.4797 30.5255 28.4423 29.5766L33.4754 24.6153C33.6304 24.4625 33.7175 24.2553 33.7175 24.0392C33.7175 23.8232 33.6304 23.6159 33.4754 23.4632L27.4367 17.5107C27.1138 17.1925 26.5907 17.1926 26.2679 17.5107L21.2349 22.472C19.2479 24.4307 19.2479 27.6179 21.2349 29.5766ZM22.4037 23.624L26.8523 19.2388L31.7222 24.0392L27.2735 28.4245C26.6232 29.0656 25.7584 29.4187 24.8385 29.4187C23.9188 29.4187 23.054 29.0656 22.4037 28.4245C21.061 27.101 21.061 24.9475 22.4037 23.624Z" fill="#B8B8B8"/>
<path d="M65 24V38" stroke="#50C6C7" stroke-width="2" stroke-linecap="round" stroke-linejoin="round"/>
<path d="M58 31H72" stroke="#50C6C7" stroke-width="2" stroke-linecap="round" stroke-linejoin="round"/>
<path fill-rule="evenodd" clip-rule="evenodd" d="M90 31.4999C90 17.9906 101.215 7 115 7C128.785 7 140 17.9906 140 31.4999C140 45.0094 128.785 56 115 56C101.215 56 90 45.0094 90 31.4999ZM91.3248 31.4999C91.3248 44.2934 101.945 54.7019 115 54.7019C128.055 54.7019 138.675 44.2934 138.675 31.4999C138.675 18.7064 128.055 8.29827 115 8.29827C101.945 8.29827 91.3248 18.7064 91.3248 31.4999Z" fill="#B8B8B8"/>
<path fill-rule="evenodd" clip-rule="evenodd" d="M94 31.4999C94 20.1964 103.421 11 115 11C126.58 11 136 20.1964 136 31.4999C136 42.8036 126.58 52 115 52C103.421 52 94 42.8038 94 31.4999ZM95.3685 31.5001C95.3685 42.0673 104.175 50.6642 115 50.6642C125.825 50.6642 134.632 42.0673 134.632 31.4999C134.632 20.9328 125.825 12.3361 115 12.3361C104.175 12.3361 95.3685 20.933 95.3685 31.5001Z" fill="#B8B8B8"/>
<path fill-rule="evenodd" clip-rule="evenodd" d="M157 9.91008C157 4.44549 153.635 0 149.5 0C145.364 0 142 4.44549 142 9.91008C142 15.0789 145.011 19.3337 148.836 19.7792V26.9118H147.259V61H151.741V26.9117H150.163V19.779C153.989 19.3335 157 15.0789 157 9.91008ZM150.414 28.228V59.6835H148.586V28.228H150.414ZM143.327 9.90989C143.327 14.6486 146.096 18.504 149.5 18.504C152.904 18.504 155.673 14.6486 155.673 9.90989C155.673 5.1712 152.904 1.31579 149.5 1.31579C146.096 1.31579 143.327 5.1712 143.327 9.90989Z" fill="#B8B8B8"/>
</svg>
