<svg width="95" height="104" viewBox="0 0 95 104" fill="none" xmlns="http://www.w3.org/2000/svg">
<path fill-rule="evenodd" clip-rule="evenodd" d="M12.9933 27.04H20.6267L19.5126 15.88H14.1093L12.9933 27.04ZM18.5732 25.1801H15.0485L15.7925 17.7401H17.8292L18.5732 25.1801Z" fill="#B8B8B8"/>
<path d="M20.6267 27.04V27.29H20.9029L20.8755 27.0152L20.6267 27.04ZM12.9933 27.04L12.7445 27.0151L12.717 27.29H12.9933V27.04ZM19.5126 15.88L19.7613 15.8552L19.7389 15.63H19.5126V15.88ZM14.1093 15.88V15.63H13.883L13.8605 15.8551L14.1093 15.88ZM15.0485 25.1801L14.7997 25.1552L14.7722 25.4301H15.0485V25.1801ZM18.5732 25.1801V25.4301H18.8494L18.8219 25.1552L18.5732 25.1801ZM15.7925 17.7401V17.4901H15.5662L15.5437 17.7152L15.7925 17.7401ZM17.8292 17.7401L18.0779 17.7152L18.0554 17.4901H17.8292V17.7401ZM20.6267 26.79H12.9933V27.29H20.6267V26.79ZM19.2638 15.9048L20.378 27.0648L20.8755 27.0152L19.7613 15.8552L19.2638 15.9048ZM14.1093 16.13H19.5126V15.63H14.1093V16.13ZM13.242 27.0649L14.358 15.9049L13.8605 15.8551L12.7445 27.0151L13.242 27.0649ZM15.0485 25.4301H18.5732V24.9301H15.0485V25.4301ZM15.5437 17.7152L14.7997 25.1552L15.2972 25.205L16.0412 17.765L15.5437 17.7152ZM17.8292 17.4901H15.7925V17.9901H17.8292V17.4901ZM18.8219 25.1552L18.0779 17.7152L17.5804 17.765L18.3244 25.205L18.8219 25.1552Z" fill="#B8B8B8"/>
<path fill-rule="evenodd" clip-rule="evenodd" d="M3.79 84.7001H29.83C31.3682 84.7001 32.62 83.4483 32.62 81.9101C32.62 80.3718 31.3682 79.1201 29.83 79.1201H3.79C2.25178 79.1201 1 80.3718 1 81.9101C1 83.4483 2.25178 84.7001 3.79 84.7001ZM2.86006 81.9101C2.86006 81.3967 3.2767 80.9801 3.79006 80.9801H29.8301C30.3434 80.9801 30.7601 81.3967 30.7601 81.9101C30.7601 82.4234 30.3434 82.8401 29.8301 82.8401H3.79006C3.2767 82.8401 2.86006 82.4234 2.86006 81.9101Z" fill="#B8B8B8"/>
<path d="M29.83 84.4501H3.79V84.9501H29.83V84.4501ZM32.37 81.9101C32.37 83.3102 31.2301 84.4501 29.83 84.4501V84.9501C31.5063 84.9501 32.87 83.5863 32.87 81.9101H32.37ZM29.83 79.3701C31.2301 79.3701 32.37 80.5099 32.37 81.9101H32.87C32.87 80.2338 31.5063 78.8701 29.83 78.8701V79.3701ZM3.79 79.3701H29.83V78.8701H3.79V79.3701ZM1.25 81.9101C1.25 80.5099 2.38985 79.3701 3.79 79.3701V78.8701C2.11371 78.8701 0.75 80.2338 0.75 81.9101H1.25ZM3.79 84.4501C2.38985 84.4501 1.25 83.3102 1.25 81.9101H0.75C0.75 83.5863 2.11371 84.9501 3.79 84.9501V84.4501ZM3.79006 80.7301C3.13863 80.7301 2.61006 81.2587 2.61006 81.9101H3.11006C3.11006 81.5348 3.41477 81.2301 3.79006 81.2301V80.7301ZM29.8301 80.7301H3.79006V81.2301H29.8301V80.7301ZM31.0101 81.9101C31.0101 81.2587 30.4815 80.7301 29.8301 80.7301V81.2301C30.2053 81.2301 30.5101 81.5348 30.5101 81.9101H31.0101ZM29.8301 83.0901C30.4815 83.0901 31.0101 82.5615 31.0101 81.9101H30.5101C30.5101 82.2854 30.2053 82.5901 29.8301 82.5901V83.0901ZM3.79006 83.0901H29.8301V82.5901H3.79006V83.0901ZM2.61006 81.9101C2.61006 82.5615 3.13863 83.0901 3.79006 83.0901V82.5901C3.41477 82.5901 3.11006 82.2854 3.11006 81.9101H2.61006Z" fill="#B8B8B8"/>
<path fill-rule="evenodd" clip-rule="evenodd" d="M10.2999 99.58H23.3199V82.84H10.2999V99.58ZM21.46 97.7201H12.16V84.7001H21.46V97.7201Z" fill="#B8B8B8"/>
<path d="M23.3199 99.58V99.83H23.5699V99.58H23.3199ZM10.2999 99.58H10.0499V99.83H10.2999V99.58ZM23.3199 82.84H23.5699V82.59H23.3199V82.84ZM10.2999 82.84V82.59H10.0499V82.84H10.2999ZM12.16 97.7201H11.91V97.9701H12.16V97.7201ZM21.46 97.7201V97.9701H21.71V97.7201H21.46ZM12.16 84.7001V84.4501H11.91V84.7001H12.16ZM21.46 84.7001H21.71V84.4501H21.46V84.7001ZM23.3199 99.33H10.2999V99.83H23.3199V99.33ZM23.0699 82.84V99.58H23.5699V82.84H23.0699ZM10.2999 83.09H23.3199V82.59H10.2999V83.09ZM10.5499 99.58V82.84H10.0499V99.58H10.5499ZM12.16 97.9701H21.46V97.4701H12.16V97.9701ZM11.91 84.7001V97.7201H12.41V84.7001H11.91ZM21.46 84.4501H12.16V84.9501H21.46V84.4501ZM21.71 97.7201V84.7001H21.21V97.7201H21.71Z" fill="#B8B8B8"/>
<path fill-rule="evenodd" clip-rule="evenodd" d="M7.51009 103.3H26.1101C27.6483 103.3 28.9001 102.048 28.9001 100.51C28.9001 98.9718 27.6483 97.72 26.1101 97.72H7.51009C5.97187 97.72 4.72009 98.9718 4.72009 100.51C4.72009 102.048 5.97187 103.3 7.51009 103.3ZM6.58017 100.51C6.58017 99.9967 6.99681 99.58 7.51017 99.58H26.1102C26.6235 99.58 27.0402 99.9967 27.0402 100.51C27.0402 101.023 26.6235 101.44 26.1102 101.44H7.51017C6.99681 101.44 6.58017 101.023 6.58017 100.51Z" fill="#B8B8B8"/>
<path d="M26.1101 103.05H7.51009V103.55H26.1101V103.05ZM28.6501 100.51C28.6501 101.91 27.5102 103.05 26.1101 103.05V103.55C27.7864 103.55 29.1501 102.186 29.1501 100.51H28.6501ZM26.1101 97.97C27.5102 97.97 28.6501 99.1098 28.6501 100.51H29.1501C29.1501 98.8337 27.7864 97.47 26.1101 97.47V97.97ZM7.51009 97.97H26.1101V97.47H7.51009V97.97ZM4.97009 100.51C4.97009 99.1098 6.10994 97.97 7.51009 97.97V97.47C5.8338 97.47 4.47009 98.8337 4.47009 100.51H4.97009ZM7.51009 103.05C6.10994 103.05 4.97009 101.91 4.97009 100.51H4.47009C4.47009 102.186 5.8338 103.55 7.51009 103.55V103.05ZM7.51017 99.33C6.85874 99.33 6.33017 99.8586 6.33017 100.51H6.83017C6.83017 100.135 7.13488 99.83 7.51017 99.83V99.33ZM26.1102 99.33H7.51017V99.83H26.1102V99.33ZM27.2902 100.51C27.2902 99.8586 26.7616 99.33 26.1102 99.33V99.83C26.4855 99.83 26.7902 100.135 26.7902 100.51H27.2902ZM26.1102 101.69C26.7616 101.69 27.2902 101.161 27.2902 100.51H26.7902C26.7902 100.885 26.4855 101.19 26.1102 101.19V101.69ZM7.51017 101.69H26.1102V101.19H7.51017V101.69ZM6.33017 100.51C6.33017 101.161 6.85874 101.69 7.51017 101.69V101.19C7.13488 101.19 6.83017 100.885 6.83017 100.51H6.33017Z" fill="#B8B8B8"/>
<rect x="15.8801" y="1" width="1.86" height="15.81" fill="#B8B8B8" stroke="#B8B8B8" stroke-width="0.5"/>
<path fill-rule="evenodd" clip-rule="evenodd" d="M44.7098 103.3H74.4698C78.0596 103.3 80.9798 100.38 80.9798 96.7899V54.0099C80.9798 49.7096 77.7192 46.157 73.5398 45.692V40.0599H45.6398V45.692C41.4604 46.1552 38.1998 49.7078 38.1998 54.0099V96.7899C38.1998 100.38 41.12 103.3 44.7098 103.3ZM40.0599 54.01C40.0599 50.4202 42.9801 47.5 46.5699 47.5H47.4999V41.92H71.6799V47.5H72.6099C76.1997 47.5 79.1199 50.4202 79.1199 54.01V96.79C79.1199 99.3531 77.033 101.44 74.4699 101.44H44.7099C42.1469 101.44 40.0599 99.3531 40.0599 96.79V54.01Z" fill="#B8B8B8"/>
<path d="M73.5398 45.692H73.2898V45.9157L73.5122 45.9405L73.5398 45.692ZM73.5398 40.0599H73.7898V39.8099H73.5398V40.0599ZM45.6398 40.0599V39.8099H45.3898V40.0599H45.6398ZM45.6398 45.692L45.6674 45.9405L45.8898 45.9158V45.692H45.6398ZM47.4999 47.5V47.75H47.7499V47.5H47.4999ZM47.4999 41.92V41.67H47.2499V41.92H47.4999ZM71.6799 41.92H71.9299V41.67H71.6799V41.92ZM71.6799 47.5H71.4299V47.75H71.6799V47.5ZM74.4698 103.05H44.7098V103.55H74.4698V103.05ZM80.7298 96.7899C80.7298 100.242 77.9216 103.05 74.4698 103.05V103.55C78.1977 103.55 81.2298 100.518 81.2298 96.7899H80.7298ZM80.7298 54.0099V96.7899H81.2298V54.0099H80.7298ZM73.5122 45.9405C77.5666 46.3916 80.7298 49.8386 80.7298 54.0099H81.2298C81.2298 49.5806 77.8719 45.9225 73.5675 45.4435L73.5122 45.9405ZM73.2898 40.0599V45.692H73.7898V40.0599H73.2898ZM45.6398 40.3099H73.5398V39.8099H45.6398V40.3099ZM45.8898 45.692V40.0599H45.3898V45.692H45.8898ZM38.4498 54.0099C38.4498 49.8367 41.6131 46.3898 45.6674 45.9405L45.6123 45.4435C41.3077 45.9205 37.9498 49.5788 37.9498 54.0099H38.4498ZM38.4498 96.7899V54.0099H37.9498V96.7899H38.4498ZM44.7098 103.05C41.2581 103.05 38.4498 100.242 38.4498 96.7899H37.9498C37.9498 100.518 40.982 103.55 44.7098 103.55V103.05ZM46.5699 47.25C42.8421 47.25 39.8099 50.2821 39.8099 54.01H40.3099C40.3099 50.5583 43.1182 47.75 46.5699 47.75V47.25ZM47.4999 47.25H46.5699V47.75H47.4999V47.25ZM47.2499 41.92V47.5H47.7499V41.92H47.2499ZM71.6799 41.67H47.4999V42.17H71.6799V41.67ZM71.9299 47.5V41.92H71.4299V47.5H71.9299ZM72.6099 47.25H71.6799V47.75H72.6099V47.25ZM79.3699 54.01C79.3699 50.2821 76.3378 47.25 72.6099 47.25V47.75C76.0617 47.75 78.8699 50.5583 78.8699 54.01H79.3699ZM79.3699 96.79V54.01H78.8699V96.79H79.3699ZM74.4699 101.69C77.1711 101.69 79.3699 99.4911 79.3699 96.79H78.8699C78.8699 99.215 76.895 101.19 74.4699 101.19V101.69ZM44.7099 101.69H74.4699V101.19H44.7099V101.69ZM39.8099 96.79C39.8099 99.4911 42.0088 101.69 44.7099 101.69V101.19C42.2849 101.19 40.3099 99.215 40.3099 96.79H39.8099ZM39.8099 54.01V96.79H40.3099V54.01H39.8099Z" fill="#B8B8B8"/>
<path fill-rule="evenodd" clip-rule="evenodd" d="M44.7099 41.9201H74.4699C77.033 41.9201 79.1199 39.8332 79.1199 37.2701V33.5501C79.1199 30.987 77.033 28.9001 74.4699 28.9001H44.7099C42.1469 28.9001 40.0599 30.987 40.0599 33.5501V37.2701C40.0599 39.8332 42.1469 41.9201 44.7099 41.9201ZM41.92 33.5501C41.92 32.0119 43.1718 30.7601 44.71 30.7601H74.47C76.0082 30.7601 77.26 32.0119 77.26 33.5501V37.2701C77.26 38.8083 76.0082 40.0601 74.47 40.0601H44.71C43.1718 40.0601 41.92 38.8083 41.92 37.2701V33.5501Z" fill="#B8B8B8"/>
<path d="M74.4699 41.6701H44.7099V42.1701H74.4699V41.6701ZM78.8699 37.2701C78.8699 39.6951 76.8949 41.6701 74.4699 41.6701V42.1701C77.1711 42.1701 79.3699 39.9712 79.3699 37.2701H78.8699ZM78.8699 33.5501V37.2701H79.3699V33.5501H78.8699ZM74.4699 29.1501C76.8949 29.1501 78.8699 31.1251 78.8699 33.5501H79.3699C79.3699 30.8489 77.1711 28.6501 74.4699 28.6501V29.1501ZM44.7099 29.1501H74.4699V28.6501H44.7099V29.1501ZM40.3099 33.5501C40.3099 31.1251 42.2849 29.1501 44.7099 29.1501V28.6501C42.0088 28.6501 39.8099 30.8489 39.8099 33.5501H40.3099ZM40.3099 37.2701V33.5501H39.8099V37.2701H40.3099ZM44.7099 41.6701C42.2849 41.6701 40.3099 39.6951 40.3099 37.2701H39.8099C39.8099 39.9712 42.0088 42.1701 44.7099 42.1701V41.6701ZM44.71 30.5101C43.0337 30.5101 41.67 31.8738 41.67 33.5501H42.17C42.17 32.15 43.3099 31.0101 44.71 31.0101V30.5101ZM74.47 30.5101H44.71V31.0101H74.47V30.5101ZM77.51 33.5501C77.51 31.8738 76.1463 30.5101 74.47 30.5101V31.0101C75.8701 31.0101 77.01 32.15 77.01 33.5501H77.51ZM77.51 37.2701V33.5501H77.01V37.2701H77.51ZM74.47 40.3101C76.1463 40.3101 77.51 38.9464 77.51 37.2701H77.01C77.01 38.6703 75.8701 39.8101 74.47 39.8101V40.3101ZM44.71 40.3101H74.47V39.8101H44.71V40.3101ZM41.67 37.2701C41.67 38.9464 43.0337 40.3101 44.71 40.3101V39.8101C43.3099 39.8101 42.17 38.6703 42.17 37.2701H41.67ZM41.67 33.5501V37.2701H42.17V33.5501H41.67Z" fill="#B8B8B8"/>
<path fill-rule="evenodd" clip-rule="evenodd" d="M38.1998 92.14H80.9798V58.66H38.1998V92.14ZM79.1199 90.2801H40.0599V60.5201H79.1199V90.2801Z" fill="#B8B8B8"/>
<path d="M80.9798 92.14V92.39H81.2298V92.14H80.9798ZM38.1998 92.14H37.9498V92.39H38.1998V92.14ZM80.9798 58.66H81.2298V58.41H80.9798V58.66ZM38.1998 58.66V58.41H37.9498V58.66H38.1998ZM40.0599 90.2801H39.8099V90.5301H40.0599V90.2801ZM79.1199 90.2801V90.5301H79.3699V90.2801H79.1199ZM40.0599 60.5201V60.2701H39.8099V60.5201H40.0599ZM79.1199 60.5201H79.3699V60.2701H79.1199V60.5201ZM80.9798 91.89H38.1998V92.39H80.9798V91.89ZM80.7298 58.66V92.14H81.2298V58.66H80.7298ZM38.1998 58.91H80.9798V58.41H38.1998V58.91ZM38.4498 92.14V58.66H37.9498V92.14H38.4498ZM40.0599 90.5301H79.1199V90.0301H40.0599V90.5301ZM39.8099 60.5201V90.2801H40.3099V60.5201H39.8099ZM79.1199 60.2701H40.0599V60.7701H79.1199V60.2701ZM79.3699 90.2801V60.5201H78.8699V90.2801H79.3699Z" fill="#B8B8B8"/>
<rect x="92.14" y="101.44" width="1.86" height="1.86" fill="#B8B8B8" stroke="#B8B8B8" stroke-width="0.5"/>
<rect x="19.6" y="101.44" width="70.68" height="1.86" fill="#B8B8B8" stroke="#B8B8B8" stroke-width="0.5"/>
<path fill-rule="evenodd" clip-rule="evenodd" d="M4.72009 80.9799H28.9001V27.2241L19.801 25.2023L14.0201 25.1799L4.72009 27.2241V80.9799ZM27.0402 79.12H6.58017V28.7159L14.1206 27.04H19.4979L27.0402 28.7159V79.12Z" fill="#B8B8B8"/>
<path d="M28.9001 80.9799V81.2299H29.1501V80.9799H28.9001ZM4.72009 80.9799H4.47009V81.2299H4.72009V80.9799ZM28.9001 27.2241H29.1501V27.0235L28.9543 26.98L28.9001 27.2241ZM19.801 25.2023L19.8552 24.9582L19.8289 24.9524L19.8019 24.9523L19.801 25.2023ZM14.0201 25.1799L14.0211 24.9299L13.9934 24.9298L13.9664 24.9358L14.0201 25.1799ZM4.72009 27.2241L4.66642 26.9799L4.47009 27.0231V27.2241H4.72009ZM6.58017 79.12H6.33017V79.37H6.58017V79.12ZM27.0402 79.12V79.37H27.2902V79.12H27.0402ZM6.58017 28.7159L6.52593 28.4718L6.33017 28.5153V28.7159H6.58017ZM14.1206 27.04V26.79H14.0932L14.0664 26.796L14.1206 27.04ZM19.4979 27.04L19.5521 26.796L19.5253 26.79H19.4979V27.04ZM27.0402 28.7159H27.2902V28.5153L27.0944 28.4718L27.0402 28.7159ZM28.9001 80.7299H4.72009V81.2299H28.9001V80.7299ZM28.6501 27.2241V80.9799H29.1501V27.2241H28.6501ZM19.7467 25.4463L28.8459 27.4681L28.9543 26.98L19.8552 24.9582L19.7467 25.4463ZM14.0191 25.4299L19.8 25.4522L19.8019 24.9523L14.0211 24.9299L14.0191 25.4299ZM4.77376 27.4682L14.0738 25.4241L13.9664 24.9358L4.66642 26.9799L4.77376 27.4682ZM4.97009 80.9799V27.2241H4.47009V80.9799H4.97009ZM6.58017 79.37H27.0402V78.87H6.58017V79.37ZM6.33017 28.7159V79.12H6.83017V28.7159H6.33017ZM14.0664 26.796L6.52593 28.4718L6.63441 28.9599L14.1748 27.284L14.0664 26.796ZM19.4979 26.79H14.1206V27.29H19.4979V26.79ZM27.0944 28.4718L19.5521 26.796L19.4436 27.284L26.9859 28.9599L27.0944 28.4718ZM27.2902 79.12V28.7159H26.7902V79.12H27.2902Z" fill="#B8B8B8"/>
<path d="M60.5199 85.6299C54.8785 85.6299 50.2899 81.0413 50.2899 75.3999C50.2899 69.7585 54.8785 65.1699 60.5199 65.1699C62.3725 65.1699 64.1878 65.6703 65.7688 66.6189L64.8128 68.2129C63.5201 67.4391 62.0358 67.0299 60.5199 67.0299C55.9053 67.0299 52.1499 70.7853 52.1499 75.3999C52.1499 80.0146 55.9053 83.7699 60.5199 83.7699C65.1346 83.7699 68.8899 80.0146 68.8899 75.3999C68.8899 74.5387 68.7597 73.6906 68.5049 72.8815L70.2775 72.3216C70.5918 73.3111 70.7499 74.349 70.7499 75.3999C70.7499 81.0413 66.1613 85.6299 60.5199 85.6299Z" fill="#B8B8B8" stroke="#B8B8B8" stroke-width="0.5"/>
<path d="M60.3937 79.4325L55.9631 74.271L57.3749 73.0583L60.3713 76.5513L67.9583 67.428L69.3886 68.6184L60.3937 79.4325Z" fill="#B8B8B8" stroke="#B8B8B8" stroke-width="0.5"/>
</svg>
