
<?xml version="1.0" encoding="utf-8"?>
<svg xmlns="http://www.w3.org/2000/svg" viewBox="0 0 500 500" xmlns:bx="https://boxy-svg.com">
  <g id="freepik--background-simple--inject-298">
    <path d="M469.63,139.38c-11.84-51.92-59.25-75.49-105-92.82-62.7-23.75-133.87-39-186.38,13-19.15,19-36.55,39.86-55.32,59.12q-9.63,9.88-19.44,19.57c-24,23.7-49.81,46.63-71.52,72.54C8.62,238.62-10.21,344,40.24,402s107.67,38.4,152.84,29.37S288,448.69,348.94,448.69s117.45-19.58,134.77-85.08-6.78-91.1-9-141.55C473.49,195.58,475.74,166.21,469.63,139.38Z" style="fill:#92E3A9"/>
    <path d="M469.63,139.38c-11.84-51.92-59.25-75.49-105-92.82-62.7-23.75-133.87-39-186.38,13-19.15,19-36.55,39.86-55.32,59.12q-9.63,9.88-19.44,19.57c-24,23.7-49.81,46.63-71.52,72.54C8.62,238.62-10.21,344,40.24,402s107.67,38.4,152.84,29.37S288,448.69,348.94,448.69s117.45-19.58,134.77-85.08-6.78-91.1-9-141.55C473.49,195.58,475.74,166.21,469.63,139.38Z" style="fill:#fff;opacity:0.7000000000000001"/>
  </g>
  <g id="freepik--Plants--inject-298">
    <path d="M72.76,397.52s.56-2.38.58-2.54c.18-1.8-.52-5.39-2.37-6.21a2.41,2.41,0,0,0-3.22,1.56,5,5,0,0,0,1,4.1C69.68,395.73,72.75,397.52,72.76,397.52Z" style="fill:#263238"/>
    <path d="M36.74,398c1.48.59,5,.38,5,.38s-.85-2.3-.92-2.44c-.84-1.61-3.4-4.21-5.4-3.87a2.39,2.39,0,0,0-1.82,3.07A5,5,0,0,0,36.74,398Z" style="fill:#263238"/>
    <path d="M38.34,408.27c1.51.17,4.65-.86,4.9-.94a44.49,44.49,0,0,0,2.12,5.26c.47,1,1,2,1.5,3-.31-.41-.58-.78-.63-.83-1.23-1.32-4.39-3.16-6.23-2.3a2.39,2.39,0,0,0-.94,3.44,5,5,0,0,0,3.75,1.94,16.19,16.19,0,0,0,4.77-.9c.21.37.4.75.61,1.12,1,1.8,2,3.59,2.89,5.38.32.63.62,1.26.92,1.89-.27-.37-.5-.68-.54-.72-1.24-1.33-4.4-3.17-6.24-2.31a2.41,2.41,0,0,0-.94,3.45A5,5,0,0,0,48,427.65a15.27,15.27,0,0,0,4.64-.87c.29.66.58,1.31.82,2,.16.45.35.86.48,1.32s.29.9.43,1.34c.23.86.49,1.74.7,2.58.15.59.28,1.15.42,1.71-.32-.63-1-1.85-1-1.94-1-1.5-3.87-3.8-5.81-3.23a2.4,2.4,0,0,0-1.46,3.26,5,5,0,0,0,3.42,2.49,16.47,16.47,0,0,0,5-.19c.22.93.43,1.85.61,2.71.64,3,1.06,5.49,1.32,7.25l1.38-.05,0-.15c-.31-1.78-.79-4.31-1.49-7.31-.23-.95-.48-2-.75-3a25.75,25.75,0,0,0,2.72-1.4,17.3,17.3,0,0,0,4.13,2.46c-.33.9-.66,1.78-1,2.6-1.12,2.84-2.16,5.16-2.91,6.78l1.51-.05c.7-1.61,1.58-3.75,2.52-6.3.34-.92.69-1.9,1-2.92a16.37,16.37,0,0,0,5,.21,5,5,0,0,0,3.42-2.47,2.41,2.41,0,0,0-1.44-3.27c-1.94-.57-4.8,1.71-5.82,3.21-.06.08-.61,1.11-1,1.77.14-.42.28-.82.42-1.25.28-.84.53-1.7.8-2.61.12-.45.24-.9.35-1.36s.21-.94.32-1.42c.22-1.1.39-2.23.54-3.38a15.87,15.87,0,0,0,4.74.92,5,5,0,0,0,3.76-1.93,2.41,2.41,0,0,0-.93-3.45c-1.84-.86-5,1-6.24,2.29-.08.08-.86,1.13-1.28,1.71.08-.69.17-1.37.23-2.07.18-2,.3-4.07.42-6.11,0-.63.09-1.25.13-1.88.26.09,3.39,1.13,4.9,1a5,5,0,0,0,3.76-1.92,2.4,2.4,0,0,0-.93-3.45c-1.83-.87-5,1-6.24,2.28-.09.1-1.21,1.61-1.48,2,.1-1.37.2-2.74.37-4.09a42.09,42.09,0,0,1,1-5.39c.12,0,3.38,1.14,4.93,1a5,5,0,0,0,3.75-1.93,2.39,2.39,0,0,0-.93-3.45c-1.83-.86-5,1-6.24,2.29-.08.08-.93,1.23-1.33,1.79l-.1-.05a31.17,31.17,0,0,1,1.94-5.16c.43-.92.89-1.77,1.36-2.59a16,16,0,0,0,4.69,1.46,5,5,0,0,0,3.95-1.5,2.4,2.4,0,0,0-.55-3.53c-1.73-1.06-5.08.41-6.45,1.59-.08.06-.77.8-1.26,1.34.22-.37.43-.75.65-1.1.8-1.3,1.62-2.45,2.35-3.46.42-.57.81-1.08,1.18-1.55a16.21,16.21,0,0,0,4.81-.86A5,5,0,0,0,85,387.14a2.4,2.4,0,0,0-2.11-2.88c-2-.15-4.32,2.7-5,4.38-.06.14-.71,2.52-.67,2.52h0c-.37.45-.75.93-1.17,1.47-.75,1-1.59,2.13-2.43,3.42a40.87,40.87,0,0,0-2.49,4.31,31,31,0,0,0-2.08,5.16s0,0,0,.06c0-.59-.09-2.25-.11-2.38-.3-1.78-1.92-5.06-3.93-5.36a2.39,2.39,0,0,0-2.68,2.35,5,5,0,0,0,2.05,3.69c1.18,1,4.37,1.85,4.62,1.92a42.26,42.26,0,0,0-1.14,5.55c-.15,1.09-.28,2.19-.38,3.3,0-.51-.06-1-.07-1-.29-1.79-1.92-5.07-3.92-5.37a2.41,2.41,0,0,0-2.69,2.36,5,5,0,0,0,2.06,3.68,15.73,15.73,0,0,0,4.48,1.88l-.12,1.28c-.17,2-.33,4.08-.55,6.07-.08.71-.18,1.4-.28,2.09,0-.46,0-.84,0-.9-.3-1.79-1.92-5.07-3.93-5.36a2.4,2.4,0,0,0-2.69,2.35,5.06,5.06,0,0,0,2.06,3.69,15.79,15.79,0,0,0,4.35,1.84c-.12.7-.24,1.4-.39,2.08-.12.46-.19.91-.33,1.37L65.07,432c-.27.85-.55,1.73-.84,2.55-.2.57-.39,1.11-.59,1.66.08-.7.22-2.07.22-2.19a9.4,9.4,0,0,0-1.41-4.49,3.27,3.27,0,0,0-.05-.53,2.41,2.41,0,0,0-3-1.93c-1.94.59-3.06,4.08-3.09,5.89,0,.1.11,1.26.19,2-.11-.43-.21-.84-.34-1.27-.23-.86-.49-1.71-.77-2.63l-.45-1.32c-.15-.45-.35-.9-.53-1.36-.42-1-.9-2.08-1.41-3.12a15.41,15.41,0,0,0,4.46-1.85,5,5,0,0,0,2.07-3.68,2.4,2.4,0,0,0-2.68-2.36c-2,.29-3.64,3.56-3.94,5.35,0,.11-.09,1.41-.12,2.13-.31-.62-.62-1.24-1-1.86-1-1.78-2-3.55-3-5.33L47.88,416c.27-.07,3.45-.93,4.63-1.9a5,5,0,0,0,2.07-3.67,2.4,2.4,0,0,0-2.68-2.37c-2,.29-3.64,3.56-3.94,5.35,0,.13-.13,2-.13,2.49-.68-1.2-1.34-2.4-1.95-3.61a42.21,42.21,0,0,1-2.16-5c.13,0,3.45-.91,4.65-1.9a5,5,0,0,0,2.07-3.68,2.41,2.41,0,0,0-2.67-2.37c-2,.29-3.65,3.57-4,5.35,0,.12-.1,1.55-.12,2.23l-.12,0a32.36,32.36,0,0,1-1.22-5.38c-.15-1-.23-2-.3-2.91a16.18,16.18,0,0,0,4.72-1.36,5,5,0,0,0,2.47-3.43,2.41,2.41,0,0,0-2.41-2.65c-2,.07-4,3.14-4.5,4.89,0,.09-.2,1.08-.31,1.81,0-.43-.05-.87-.07-1.27-.05-1.54,0-2.94,0-4.19,0-.71.08-1.35.13-1.94a16.47,16.47,0,0,0,3.54-3.37,5,5,0,0,0,.61-4.18,2.4,2.4,0,0,0-3.35-1.24c-1.77,1-2.12,4.63-1.76,6.41,0,.15.8,2.49.83,2.47l0,0c-.06.57-.11,1.19-.16,1.86-.08,1.25-.16,2.66-.14,4.2a41.68,41.68,0,0,0,.29,5,31.18,31.18,0,0,0,1.12,5.46s0,0,0,.06c-.34-.49-1.32-1.83-1.41-1.92-1.23-1.33-4.39-3.17-6.23-2.31a2.4,2.4,0,0,0-.94,3.45A5,5,0,0,0,38.34,408.27Z" style="fill:#263238"/>
    <path d="M36.74,398c1.48.59,5,.38,5,.38s-.85-2.3-.92-2.44c-.84-1.61-3.4-4.21-5.4-3.87a2.39,2.39,0,0,0-1.82,3.07A5,5,0,0,0,36.74,398Z" style="fill:#263238;opacity:0.30000000000000004"/>
    <path d="M72.76,397.52s.56-2.38.58-2.54c.18-1.8-.52-5.39-2.37-6.21a2.41,2.41,0,0,0-3.22,1.56,5,5,0,0,0,1,4.1C69.68,395.73,72.75,397.52,72.76,397.52Z" style="fill:#263238;opacity:0.30000000000000004"/>
    <path d="M38.34,408.27c1.51.17,4.65-.86,4.9-.94a44.49,44.49,0,0,0,2.12,5.26c.47,1,1,2,1.5,3-.31-.41-.58-.78-.63-.83-1.23-1.32-4.39-3.16-6.23-2.3a2.39,2.39,0,0,0-.94,3.44,5,5,0,0,0,3.75,1.94,16.19,16.19,0,0,0,4.77-.9c.21.37.4.75.61,1.12,1,1.8,2,3.59,2.89,5.38.32.63.62,1.26.92,1.89-.27-.37-.5-.68-.54-.72-1.24-1.33-4.4-3.17-6.24-2.31a2.41,2.41,0,0,0-.94,3.45A5,5,0,0,0,48,427.65a15.27,15.27,0,0,0,4.64-.87c.29.66.58,1.31.82,2,.16.45.35.86.48,1.32s.29.9.43,1.34c.23.86.49,1.74.7,2.58.15.59.28,1.15.42,1.71-.32-.63-1-1.85-1-1.94-1-1.5-3.87-3.8-5.81-3.23a2.4,2.4,0,0,0-1.46,3.26,5,5,0,0,0,3.42,2.49,16.47,16.47,0,0,0,5-.19c.22.93.43,1.85.61,2.71.64,3,1.06,5.49,1.32,7.25l1.38-.05,0-.15c-.31-1.78-.79-4.31-1.49-7.31-.23-.95-.48-2-.75-3a25.75,25.75,0,0,0,2.72-1.4,17.3,17.3,0,0,0,4.13,2.46c-.33.9-.66,1.78-1,2.6-1.12,2.84-2.16,5.16-2.91,6.78l1.51-.05c.7-1.61,1.58-3.75,2.52-6.3.34-.92.69-1.9,1-2.92a16.37,16.37,0,0,0,5,.21,5,5,0,0,0,3.42-2.47,2.41,2.41,0,0,0-1.44-3.27c-1.94-.57-4.8,1.71-5.82,3.21-.06.08-.61,1.11-1,1.77.14-.42.28-.82.42-1.25.28-.84.53-1.7.8-2.61.12-.45.24-.9.35-1.36s.21-.94.32-1.42c.22-1.1.39-2.23.54-3.38a15.87,15.87,0,0,0,4.74.92,5,5,0,0,0,3.76-1.93,2.41,2.41,0,0,0-.93-3.45c-1.84-.86-5,1-6.24,2.29-.08.08-.86,1.13-1.28,1.71.08-.69.17-1.37.23-2.07.18-2,.3-4.07.42-6.11,0-.63.09-1.25.13-1.88.26.09,3.39,1.13,4.9,1a5,5,0,0,0,3.76-1.92,2.4,2.4,0,0,0-.93-3.45c-1.83-.87-5,1-6.24,2.28-.09.1-1.21,1.61-1.48,2,.1-1.37.2-2.74.37-4.09a42.09,42.09,0,0,1,1-5.39c.12,0,3.38,1.14,4.93,1a5,5,0,0,0,3.75-1.93,2.39,2.39,0,0,0-.93-3.45c-1.83-.86-5,1-6.24,2.29-.08.08-.93,1.23-1.33,1.79l-.1-.05a31.17,31.17,0,0,1,1.94-5.16c.43-.92.89-1.77,1.36-2.59a16,16,0,0,0,4.69,1.46,5,5,0,0,0,3.95-1.5,2.4,2.4,0,0,0-.55-3.53c-1.73-1.06-5.08.41-6.45,1.59-.08.06-.77.8-1.26,1.34.22-.37.43-.75.65-1.1.8-1.3,1.62-2.45,2.35-3.46.42-.57.81-1.08,1.18-1.55a16.21,16.21,0,0,0,4.81-.86A5,5,0,0,0,85,387.14a2.4,2.4,0,0,0-2.11-2.88c-2-.15-4.32,2.7-5,4.38-.06.14-.71,2.52-.67,2.52h0c-.37.45-.75.93-1.17,1.47-.75,1-1.59,2.13-2.43,3.42a40.87,40.87,0,0,0-2.49,4.31,31,31,0,0,0-2.08,5.16s0,0,0,.06c0-.59-.09-2.25-.11-2.38-.3-1.78-1.92-5.06-3.93-5.36a2.39,2.39,0,0,0-2.68,2.35,5,5,0,0,0,2.05,3.69c1.18,1,4.37,1.85,4.62,1.92a42.26,42.26,0,0,0-1.14,5.55c-.15,1.09-.28,2.19-.38,3.3,0-.51-.06-1-.07-1-.29-1.79-1.92-5.07-3.92-5.37a2.41,2.41,0,0,0-2.69,2.36,5,5,0,0,0,2.06,3.68,15.73,15.73,0,0,0,4.48,1.88l-.12,1.28c-.17,2-.33,4.08-.55,6.07-.08.71-.18,1.4-.28,2.09,0-.46,0-.84,0-.9-.3-1.79-1.92-5.07-3.93-5.36a2.4,2.4,0,0,0-2.69,2.35,5.06,5.06,0,0,0,2.06,3.69,15.79,15.79,0,0,0,4.35,1.84c-.12.7-.24,1.4-.39,2.08-.12.46-.19.91-.33,1.37L65.07,432c-.27.85-.55,1.73-.84,2.55-.2.57-.39,1.11-.59,1.66.08-.7.22-2.07.22-2.19a9.4,9.4,0,0,0-1.41-4.49,3.27,3.27,0,0,0-.05-.53,2.41,2.41,0,0,0-3-1.93c-1.94.59-3.06,4.08-3.09,5.89,0,.1.11,1.26.19,2-.11-.43-.21-.84-.34-1.27-.23-.86-.49-1.71-.77-2.63l-.45-1.32c-.15-.45-.35-.9-.53-1.36-.42-1-.9-2.08-1.41-3.12a15.41,15.41,0,0,0,4.46-1.85,5,5,0,0,0,2.07-3.68,2.4,2.4,0,0,0-2.68-2.36c-2,.29-3.64,3.56-3.94,5.35,0,.11-.09,1.41-.12,2.13-.31-.62-.62-1.24-1-1.86-1-1.78-2-3.55-3-5.33L47.88,416c.27-.07,3.45-.93,4.63-1.9a5,5,0,0,0,2.07-3.67,2.4,2.4,0,0,0-2.68-2.37c-2,.29-3.64,3.56-3.94,5.35,0,.13-.13,2-.13,2.49-.68-1.2-1.34-2.4-1.95-3.61a42.21,42.21,0,0,1-2.16-5c.13,0,3.45-.91,4.65-1.9a5,5,0,0,0,2.07-3.68,2.41,2.41,0,0,0-2.67-2.37c-2,.29-3.65,3.57-4,5.35,0,.12-.1,1.55-.12,2.23l-.12,0a32.36,32.36,0,0,1-1.22-5.38c-.15-1-.23-2-.3-2.91a16.18,16.18,0,0,0,4.72-1.36,5,5,0,0,0,2.47-3.43,2.41,2.41,0,0,0-2.41-2.65c-2,.07-4,3.14-4.5,4.89,0,.09-.2,1.08-.31,1.81,0-.43-.05-.87-.07-1.27-.05-1.54,0-2.94,0-4.19,0-.71.08-1.35.13-1.94a16.47,16.47,0,0,0,3.54-3.37,5,5,0,0,0,.61-4.18,2.4,2.4,0,0,0-3.35-1.24c-1.77,1-2.12,4.63-1.76,6.41,0,.15.8,2.49.83,2.47l0,0c-.06.57-.11,1.19-.16,1.86-.08,1.25-.16,2.66-.14,4.2a41.68,41.68,0,0,0,.29,5,31.18,31.18,0,0,0,1.12,5.46s0,0,0,.06c-.34-.49-1.32-1.83-1.41-1.92-1.23-1.33-4.39-3.17-6.23-2.31a2.4,2.4,0,0,0-.94,3.45A5,5,0,0,0,38.34,408.27Z" style="fill:#263238;opacity:0.30000000000000004"/>
    <path d="M66,444.43a27.47,27.47,0,0,1-7.72-.79,9.73,9.73,0,0,0-7.52.79c-1.19.79-4,1.78-4.16,2.77s1.39.6,4.75,1.58,7.92,2,11.09,1.39,9.3-.4,8.11-2.18S68.2,444,66,444.43Z" style="fill:#fff;stroke:#263238;stroke-miterlimit:10"/>
    <path d="M57.11,447s-4-.79-5.93-.19-4,1.78-3.76,2.57,1,1.19,2.37,1.19,3.36.59,6.14.59,4.35,1,2.77-1.58Z" style="fill:#fff;stroke:#263238;stroke-miterlimit:10"/>
    <path d="M448.59,422.07s.3-1.29.31-1.38c.1-1-.28-2.93-1.28-3.38a1.31,1.31,0,0,0-1.75.85,2.73,2.73,0,0,0,.55,2.23A9.17,9.17,0,0,0,448.59,422.07Z" style="fill:#263238"/>
    <path d="M429,422.34a9.21,9.21,0,0,0,2.74.2s-.46-1.25-.5-1.32c-.46-.88-1.85-2.29-2.94-2.11a1.31,1.31,0,0,0-1,1.67A2.75,2.75,0,0,0,429,422.34Z" style="fill:#263238"/>
    <path d="M429.87,427.92a9,9,0,0,0,2.67-.52,21.63,21.63,0,0,0,1.15,2.86c.25.55.53,1.08.81,1.62a4.15,4.15,0,0,0-.34-.45c-.67-.72-2.39-1.72-3.39-1.26a1.31,1.31,0,0,0-.51,1.88,2.72,2.72,0,0,0,2,1.05,8.91,8.91,0,0,0,2.6-.49c.11.2.21.41.33.61.53,1,1.07,1.95,1.57,2.93.17.34.34.68.5,1l-.3-.39c-.67-.72-2.39-1.72-3.39-1.25a1.3,1.3,0,0,0-.51,1.87,2.73,2.73,0,0,0,2,1.06,8.77,8.77,0,0,0,2.53-.47c.15.35.31.71.44,1.06s.19.47.26.72.16.49.23.73c.13.46.27.94.38,1.4s.16.63.23.93c-.17-.34-.52-1-.55-1.06-.56-.81-2.1-2.06-3.16-1.75a1.3,1.3,0,0,0-.79,1.78,2.71,2.71,0,0,0,1.85,1.35,8.75,8.75,0,0,0,2.7-.11c.12.51.24,1,.34,1.48.34,1.62.57,3,.71,3.94l.75,0v-.09c-.17-1-.43-2.34-.82-4-.12-.51-.26-1.06-.4-1.63a13.13,13.13,0,0,0,1.48-.76,9.35,9.35,0,0,0,2.25,1.34c-.18.49-.36,1-.54,1.41-.61,1.55-1.17,2.81-1.58,3.69l.82,0c.38-.87.86-2,1.37-3.42.19-.5.37-1,.56-1.59a9,9,0,0,0,2.7.12,2.73,2.73,0,0,0,1.86-1.35,1.3,1.3,0,0,0-.78-1.77c-1.06-.32-2.61.92-3.17,1.74,0,0-.33.6-.51,1,.07-.22.15-.44.23-.68.15-.46.28-.92.43-1.42.07-.24.13-.49.19-.74s.12-.51.17-.77c.12-.6.22-1.21.3-1.84a8.49,8.49,0,0,0,2.58.5,2.72,2.72,0,0,0,2-1.05,1.31,1.31,0,0,0-.5-1.87c-1-.47-2.73.52-3.4,1.24,0,.05-.47.62-.69.93,0-.37.09-.74.12-1.13.1-1.09.16-2.21.23-3.32,0-.34.05-.68.07-1a8.93,8.93,0,0,0,2.67.53,2.72,2.72,0,0,0,2-1.05,1.29,1.29,0,0,0-.5-1.87c-1-.47-2.72.52-3.4,1.24-.05.05-.66.87-.8,1.09.05-.75.11-1.49.2-2.22a22.81,22.81,0,0,1,.53-2.94,9.25,9.25,0,0,0,2.68.54,2.72,2.72,0,0,0,2-1.05,1.3,1.3,0,0,0-.5-1.88c-1-.47-2.72.53-3.4,1.24,0,0-.51.68-.72,1l-.06,0a17.48,17.48,0,0,1,1.06-2.8c.23-.5.49-1,.74-1.41a8.85,8.85,0,0,0,2.55.79,2.72,2.72,0,0,0,2.15-.81,1.3,1.3,0,0,0-.3-1.92c-.94-.58-2.76.22-3.51.86,0,0-.42.43-.68.73.11-.2.23-.41.35-.6.43-.71.88-1.33,1.28-1.88.22-.31.44-.59.64-.84a8.81,8.81,0,0,0,2.61-.47,2.73,2.73,0,0,0,1.53-1.71,1.3,1.3,0,0,0-1.14-1.57c-1.1-.08-2.35,1.47-2.72,2.38,0,.08-.39,1.37-.37,1.37h0c-.2.24-.41.5-.63.8-.41.54-.87,1.15-1.32,1.86a23,23,0,0,0-1.36,2.34,16.15,16.15,0,0,0-1.13,2.81v0c0-.32-.05-1.22-.06-1.29-.16-1-1.05-2.76-2.14-2.92a1.31,1.31,0,0,0-1.46,1.28,2.75,2.75,0,0,0,1.12,2,9,9,0,0,0,2.51,1.05,23.73,23.73,0,0,0-.62,3c-.08.59-.15,1.19-.21,1.79,0-.28,0-.53,0-.56-.16-1-1-2.75-2.14-2.92a1.31,1.31,0,0,0-1.46,1.28,2.77,2.77,0,0,0,1.12,2,8.68,8.68,0,0,0,2.44,1l-.06.69c-.1,1.11-.19,2.22-.3,3.31-.05.38-.1.76-.16,1.13,0-.25,0-.46,0-.49-.16-1-1-2.75-2.13-2.91a1.29,1.29,0,0,0-1.46,1.28,2.71,2.71,0,0,0,1.12,2,8.06,8.06,0,0,0,2.36,1c-.06.38-.13.77-.21,1.14s-.11.49-.18.74l-.21.73c-.15.46-.3.94-.46,1.39l-.32.9c0-.38.12-1.13.12-1.19a5.06,5.06,0,0,0-.77-2.44,1.43,1.43,0,0,0,0-.29,1.3,1.3,0,0,0-1.63-1.05c-1.06.32-1.66,2.22-1.68,3.2,0,.06.06.69.1,1.09l-.18-.69c-.13-.47-.27-.93-.42-1.43l-.25-.72c-.08-.24-.19-.49-.28-.74-.23-.57-.5-1.13-.77-1.69a8.76,8.76,0,0,0,2.42-1,2.73,2.73,0,0,0,1.13-2,1.31,1.31,0,0,0-1.46-1.29c-1.09.16-2,1.94-2.14,2.91,0,.06-.05.77-.07,1.16-.17-.34-.33-.67-.51-1-.53-1-1.09-1.93-1.65-2.9-.17-.29-.33-.59-.5-.89a8.54,8.54,0,0,0,2.51-1,2.73,2.73,0,0,0,1.13-2,1.3,1.3,0,0,0-1.45-1.28c-1.1.15-2,1.93-2.15,2.91,0,.07-.07,1.09-.07,1.35-.37-.65-.73-1.31-1.06-2a23,23,0,0,1-1.17-2.74,9.5,9.5,0,0,0,2.53-1,2.72,2.72,0,0,0,1.12-2,1.31,1.31,0,0,0-1.45-1.29c-1.1.16-2,1.94-2.15,2.91,0,.07-.05.84-.07,1.22h-.06a16.07,16.07,0,0,1-.66-2.92c-.08-.55-.13-1.07-.16-1.58a9,9,0,0,0,2.56-.75,2.69,2.69,0,0,0,1.34-1.86,1.31,1.31,0,0,0-1.31-1.44c-1.1,0-2.18,1.71-2.45,2.66,0,.05-.1.59-.17,1,0-.23,0-.47,0-.69,0-.83,0-1.6,0-2.28,0-.38,0-.73.07-1.05a8.74,8.74,0,0,0,1.92-1.84,2.73,2.73,0,0,0,.33-2.27,1.3,1.3,0,0,0-1.82-.67c-1,.54-1.15,2.52-.95,3.48,0,.09.43,1.36.45,1.35h0c0,.31-.06.64-.09,1,0,.68-.08,1.44-.07,2.28a23.6,23.6,0,0,0,.16,2.7,17.38,17.38,0,0,0,.6,3l0,0c-.19-.26-.72-1-.77-1-.67-.72-2.39-1.72-3.39-1.26a1.31,1.31,0,0,0-.51,1.88A2.76,2.76,0,0,0,429.87,427.92Z" style="fill:#263238"/>
    <path d="M429,422.34a9.21,9.21,0,0,0,2.74.2s-.46-1.25-.5-1.32c-.46-.88-1.85-2.29-2.94-2.11a1.31,1.31,0,0,0-1,1.67A2.75,2.75,0,0,0,429,422.34Z" style="fill:#263238;opacity:0.30000000000000004"/>
    <path d="M448.59,422.07s.3-1.29.31-1.38c.1-1-.28-2.93-1.28-3.38a1.31,1.31,0,0,0-1.75.85,2.73,2.73,0,0,0,.55,2.23A9.17,9.17,0,0,0,448.59,422.07Z" style="fill:#263238;opacity:0.30000000000000004"/>
    <path d="M429.87,427.92a9,9,0,0,0,2.67-.52,21.63,21.63,0,0,0,1.15,2.86c.25.55.53,1.08.81,1.62a4.15,4.15,0,0,0-.34-.45c-.67-.72-2.39-1.72-3.39-1.26a1.31,1.31,0,0,0-.51,1.88,2.72,2.72,0,0,0,2,1.05,8.91,8.91,0,0,0,2.6-.49c.11.2.21.41.33.61.53,1,1.07,1.95,1.57,2.93.17.34.34.68.5,1l-.3-.39c-.67-.72-2.39-1.72-3.39-1.25a1.3,1.3,0,0,0-.51,1.87,2.73,2.73,0,0,0,2,1.06,8.77,8.77,0,0,0,2.53-.47c.15.35.31.71.44,1.06s.19.47.26.72.16.49.23.73c.13.46.27.94.38,1.4s.16.63.23.93c-.17-.34-.52-1-.55-1.06-.56-.81-2.1-2.06-3.16-1.75a1.3,1.3,0,0,0-.79,1.78,2.71,2.71,0,0,0,1.85,1.35,8.75,8.75,0,0,0,2.7-.11c.12.51.24,1,.34,1.48.34,1.62.57,3,.71,3.94l.75,0v-.09c-.17-1-.43-2.34-.82-4-.12-.51-.26-1.06-.4-1.63a13.13,13.13,0,0,0,1.48-.76,9.35,9.35,0,0,0,2.25,1.34c-.18.49-.36,1-.54,1.41-.61,1.55-1.17,2.81-1.58,3.69l.82,0c.38-.87.86-2,1.37-3.42.19-.5.37-1,.56-1.59a9,9,0,0,0,2.7.12,2.73,2.73,0,0,0,1.86-1.35,1.3,1.3,0,0,0-.78-1.77c-1.06-.32-2.61.92-3.17,1.74,0,0-.33.6-.51,1,.07-.22.15-.44.23-.68.15-.46.28-.92.43-1.42.07-.24.13-.49.19-.74s.12-.51.17-.77c.12-.6.22-1.21.3-1.84a8.49,8.49,0,0,0,2.58.5,2.72,2.72,0,0,0,2-1.05,1.31,1.31,0,0,0-.5-1.87c-1-.47-2.73.52-3.4,1.24,0,.05-.47.62-.69.93,0-.37.09-.74.12-1.13.1-1.09.16-2.21.23-3.32,0-.34.05-.68.07-1a8.93,8.93,0,0,0,2.67.53,2.72,2.72,0,0,0,2-1.05,1.29,1.29,0,0,0-.5-1.87c-1-.47-2.72.52-3.4,1.24-.05.05-.66.87-.8,1.09.05-.75.11-1.49.2-2.22a22.81,22.81,0,0,1,.53-2.94,9.25,9.25,0,0,0,2.68.54,2.72,2.72,0,0,0,2-1.05,1.3,1.3,0,0,0-.5-1.88c-1-.47-2.72.53-3.4,1.24,0,0-.51.68-.72,1l-.06,0a17.48,17.48,0,0,1,1.06-2.8c.23-.5.49-1,.74-1.41a8.85,8.85,0,0,0,2.55.79,2.72,2.72,0,0,0,2.15-.81,1.3,1.3,0,0,0-.3-1.92c-.94-.58-2.76.22-3.51.86,0,0-.42.43-.68.73.11-.2.23-.41.35-.6.43-.71.88-1.33,1.28-1.88.22-.31.44-.59.64-.84a8.81,8.81,0,0,0,2.61-.47,2.73,2.73,0,0,0,1.53-1.71,1.3,1.3,0,0,0-1.14-1.57c-1.1-.08-2.35,1.47-2.72,2.38,0,.08-.39,1.37-.37,1.37h0c-.2.24-.41.5-.63.8-.41.54-.87,1.15-1.32,1.86a23,23,0,0,0-1.36,2.34,16.15,16.15,0,0,0-1.13,2.81v0c0-.32-.05-1.22-.06-1.29-.16-1-1.05-2.76-2.14-2.92a1.31,1.31,0,0,0-1.46,1.28,2.75,2.75,0,0,0,1.12,2,9,9,0,0,0,2.51,1.05,23.73,23.73,0,0,0-.62,3c-.08.59-.15,1.19-.21,1.79,0-.28,0-.53,0-.56-.16-1-1-2.75-2.14-2.92a1.31,1.31,0,0,0-1.46,1.28,2.77,2.77,0,0,0,1.12,2,8.68,8.68,0,0,0,2.44,1l-.06.69c-.1,1.11-.19,2.22-.3,3.31-.05.38-.1.76-.16,1.13,0-.25,0-.46,0-.49-.16-1-1-2.75-2.13-2.91a1.29,1.29,0,0,0-1.46,1.28,2.71,2.71,0,0,0,1.12,2,8.06,8.06,0,0,0,2.36,1c-.06.38-.13.77-.21,1.14s-.11.49-.18.74l-.21.73c-.15.46-.3.94-.46,1.39l-.32.9c0-.38.12-1.13.12-1.19a5.06,5.06,0,0,0-.77-2.44,1.43,1.43,0,0,0,0-.29,1.3,1.3,0,0,0-1.63-1.05c-1.06.32-1.66,2.22-1.68,3.2,0,.06.06.69.1,1.09l-.18-.69c-.13-.47-.27-.93-.42-1.43l-.25-.72c-.08-.24-.19-.49-.28-.74-.23-.57-.5-1.13-.77-1.69a8.76,8.76,0,0,0,2.42-1,2.73,2.73,0,0,0,1.13-2,1.31,1.31,0,0,0-1.46-1.29c-1.09.16-2,1.94-2.14,2.91,0,.06-.05.77-.07,1.16-.17-.34-.33-.67-.51-1-.53-1-1.09-1.93-1.65-2.9-.17-.29-.33-.59-.5-.89a8.54,8.54,0,0,0,2.51-1,2.73,2.73,0,0,0,1.13-2,1.3,1.3,0,0,0-1.45-1.28c-1.1.15-2,1.93-2.15,2.91,0,.07-.07,1.09-.07,1.35-.37-.65-.73-1.31-1.06-2a23,23,0,0,1-1.17-2.74,9.5,9.5,0,0,0,2.53-1,2.72,2.72,0,0,0,1.12-2,1.31,1.31,0,0,0-1.45-1.29c-1.1.16-2,1.94-2.15,2.91,0,.07-.05.84-.07,1.22h-.06a16.07,16.07,0,0,1-.66-2.92c-.08-.55-.13-1.07-.16-1.58a9,9,0,0,0,2.56-.75,2.69,2.69,0,0,0,1.34-1.86,1.31,1.31,0,0,0-1.31-1.44c-1.1,0-2.18,1.71-2.45,2.66,0,.05-.1.59-.17,1,0-.23,0-.47,0-.69,0-.83,0-1.6,0-2.28,0-.38,0-.73.07-1.05a8.74,8.74,0,0,0,1.92-1.84,2.73,2.73,0,0,0,.33-2.27,1.3,1.3,0,0,0-1.82-.67c-1,.54-1.15,2.52-.95,3.48,0,.09.43,1.36.45,1.35h0c0,.31-.06.64-.09,1,0,.68-.08,1.44-.07,2.28a23.6,23.6,0,0,0,.16,2.7,17.38,17.38,0,0,0,.6,3l0,0c-.19-.26-.72-1-.77-1-.67-.72-2.39-1.72-3.39-1.26a1.31,1.31,0,0,0-.51,1.88A2.76,2.76,0,0,0,429.87,427.92Z" style="fill:#263238;opacity:0.30000000000000004"/>
    <path d="M444.92,447.59a15,15,0,0,1-4.19-.44,5.27,5.27,0,0,0-4.09.44c-.65.43-2.16,1-2.27,1.5s.76.32,2.59.86a14.79,14.79,0,0,0,6,.76c1.72-.33,5.05-.22,4.41-1.19S446.11,447.37,444.92,447.59Z" style="fill:#fff;stroke:#263238;stroke-miterlimit:10"/>
    <path d="M440.08,449a9.07,9.07,0,0,0-3.23-.1c-1.08.32-2.15,1-2,1.4s.53.64,1.29.64,1.83.32,3.33.32,2.37.54,1.51-.86Z" style="fill:#fff;stroke:#263238;stroke-miterlimit:10"/>
  </g>
  <g id="freepik--Shadow--inject-298">
    <ellipse cx="127.2" cy="456.59" rx="69.64" ry="11.67" style="opacity:0.2"/>
  </g>
  <g id="freepik--Stones--inject-298">
    <path d="M293.77,461.07s-3.94-.56-8.44-1.13-11.24,1.13-10.68,3.38,2.81,2.25,7.31,2.25,9.56,1.68,12.93,0S293.77,461.07,293.77,461.07Z" style="fill:#fff;stroke:#263238;stroke-miterlimit:10"/>
    <path d="M320.9,459.35a8.61,8.61,0,0,0-2.83.75c-.94.57-.56,1.51.94,1.7s5.95.77,5.09-.38C323,459.91,322.41,459,320.9,459.35Z" style="fill:#fff;stroke:#263238;stroke-miterlimit:10"/>
    <path d="M210.53,459.42s2.88.27,6.17.51,8.12-1.22,7.63-2.83-2.12-1.53-5.39-1.37-7-.88-9.39.47S210.53,459.42,210.53,459.42Z" style="fill:#fff;stroke:#263238;stroke-miterlimit:10"/>
    <path d="M378.13,461.85s1.48.28,3.18.54,4.15-.9,3.87-2.29-1.12-1.34-2.79-1.25-3.61-.87-4.82.24S378.13,461.85,378.13,461.85Z" style="fill:#fff;stroke:#263238;stroke-miterlimit:10"/>
    <path d="M202.15,452.55a6.31,6.31,0,0,0-2.06.54c-.69.42-.41,1.1.68,1.24s4.33.56,3.7-.28C203.65,453,203.24,452.27,202.15,452.55Z" style="fill:#fff;stroke:#263238;stroke-miterlimit:10"/>
    <path d="M398.86,452.55a6.27,6.27,0,0,0-2.05.54c-.69.42-.41,1.1.68,1.24s4.33.56,3.7-.28C400.37,453,400,452.27,398.86,452.55Z" style="fill:#fff;stroke:#263238;stroke-miterlimit:10"/>
  </g>
  <g id="freepik--Character--inject-298">
    <path d="M82.76,341.09s1.74,3.48.69,14.27-5.57,20.19-1.39,35.85,5.57,40,5.57,41.07-7.66,15-10.44,20.54-2.79,10.1-1,11.84,10.45,2.09,16,0,7.65-7.31,8.35-13.23.35-15,.7-19.84,3.83-31.68,5.91-48.39a182.3,182.3,0,0,0,1.74-28.89c0-5.22,2.09-13.57,2.09-15.31s-31.32-3.83-31.32-3.83Z" style="fill:#cfcfcf;stroke:#263238;stroke-miterlimit:10"/>
    <path d="M79.63,335.17l3.13,5.92s1.15,2.3,1,9l25.27,1.11c.52-4.92,1.9-10.73,1.9-12.15C111,337.26,79.63,335.17,79.63,335.17Z" style="fill:#263238"/>
    <path d="M100.51,451.43c.4-3.36.45-7.73.5-11.77-1.35,4.65-3.28,11.42-3.28,11.42s-3.14-2.44-9.75-3.48c-5.64-.89-7.73,0-8.23.27-1,1.92-1.92,3.66-2.56,4.95-2.79,5.57-2.79,10.1-1,11.84s10.45,2.09,16,0S99.81,457.35,100.51,451.43Z" style="fill:#263238;stroke:#263238;stroke-miterlimit:10"/>
    <path d="M122.44,339s1.74,17.75,3.83,24.36,11.7,49.72,12,59.47.35,14.62,0,16.7-3.16,15.73-7.34,19.56-1.36,8.29,2.47,9.68,14.46-.24,18.64-5.11,3.64-17.16,1.9-25.17-2.79-13.58-1.74-19.49,6.64-24.78,5.25-41.83-6.16-24.95-6.51-29.12a107.67,107.67,0,0,1,.35-12.53Z" style="fill:#cfcfcf;stroke:#263238;stroke-miterlimit:10"/>
    <path d="M122.44,339s.7,7.16,1.75,14.08c6.47,1,14.11,1,26.79-5a107.67,107.67,0,0,1,.35-12.53Z" style="fill:#263238"/>
    <path d="M152.08,463.66c4.18-4.87,3.64-17.16,1.9-25.17-2.09,15.32-4.18,18.45-4.18,18.45a82,82,0,0,0-9.05-3.83,6.75,6.75,0,0,0-7,1.74l-.25,0c-1.11,2.55-1.32,3.05-2.57,4.2-4.17,3.83-1.36,8.29,2.47,9.68S147.9,468.53,152.08,463.66Z" style="fill:#263238;stroke:#263238;stroke-miterlimit:10"/>
    <ellipse cx="120.27" cy="50.85" rx="7.38" ry="7.78" style="fill:#263238;stroke:#263238;stroke-miterlimit:10"/>
    <path d="M118.87,52.44s-7.77-3.59-18.74,1.4S85.18,74.77,86,77.76l.79,3S75.61,87.93,70,97.7A42.35,42.35,0,0,0,64.84,118l4,3,.8-6.38,2.19,8.17L77,125l5.39-8.17L81,128.6l3.39,2.2,3.19-2.2,1.6,4.39a108.91,108.91,0,0,0,17.74,5.58c8.77,1.8,27.51.8,32.3-1s6.58-3.38,6.58-3.38l1-5.39,2.4,4.19L159,128.4l.59-5.58,2,3.59s4.19-7,4.58-7.78,3.19-6-1.19-12.76a102.67,102.67,0,0,0-12.16-14.75c-1.6-1.59-4-4-4-4l-.8-2.79s.6-16.15-6.18-25.32S118.87,52.44,118.87,52.44Z" style="fill:#263238;stroke:#263238;stroke-miterlimit:10"/>
    <path d="M86.77,80.75S70.22,87.13,64,101.69" style="fill:none;stroke:#263238;stroke-miterlimit:10"/>
    <path d="M168.92,107.27c-4-9-20.94-22.93-20.94-22.93a59.84,59.84,0,0,1,15.35,9.57" style="fill:none;stroke:#263238;stroke-miterlimit:10"/>
    <path d="M69.35,270.85s-2,54-2.64,58.93-2,10.86-2,10.86,1,1.32,8.56,3.95,21.07,1.32,22.38,1.32,3.95,1.64,8.23,2,13.17-2,13.17-2a54.87,54.87,0,0,0,10.21,2.63,38.19,38.19,0,0,0,17.11-2c4.94-2,6.92-3,8.56-3s4.94,1,7.25-1.32l2.3-2.3-6.91-69.13Z" style="fill:#707070;stroke:#263238;stroke-miterlimit:10"/>
    <line x1="84.74" y1="300" x2="84.29" y2="305.49" style="fill:none;stroke:#263238;stroke-miterlimit:10"/>
    <line x1="86.28" y1="281.08" x2="85.08" y2="295.78" style="fill:none;stroke:#263238;stroke-miterlimit:10"/>
    <line x1="96.97" y1="318.33" x2="97.24" y2="312.47" style="fill:none;stroke:#263238;stroke-miterlimit:10"/>
    <line x1="95.68" y1="345.91" x2="96.76" y2="322.85" style="fill:none;stroke:#263238;stroke-miterlimit:10"/>
    <line x1="150.18" y1="324.17" x2="147.06" y2="293.54" style="fill:none;stroke:#263238;stroke-miterlimit:10"/>
    <line x1="151.33" y1="335.52" x2="150.6" y2="328.36" style="fill:none;stroke:#263238;stroke-miterlimit:10"/>
    <line x1="118.66" y1="285.07" x2="118.66" y2="298.52" style="fill:none;stroke:#263238;stroke-miterlimit:10"/>
    <path d="M75.62,152S64.32,175.54,64,183.08s-10.68,41.77-10,44.59a17.83,17.83,0,0,0,5.65,8.8c2.52,1.88,10.68,1.25,10.68,1.25S65.89,267.25,66.51,271s2.2,4.09,7.86,6.6,47.42,3.45,62.18,2.2,20.73-3.14,21.67-9.42-.94-13.19-.94-18.22-.32-10.36-.32-10.36l-.31-6.6s5.34,3.46,13.19-1.26,7.85-17.27,5.34-27.32-13.51-36.43-15.39-43-2.51-7.22-5.65-9.73-27-7.85-33.61-8.79-16.33-2.2-26.38.31A109,109,0,0,0,75.62,152Z" style="fill:#92E3A9;stroke:#263238;stroke-miterlimit:10"/>
    <line x1="80.33" y1="190.29" x2="82.34" y2="176.86" style="fill:none;stroke:#263238;stroke-miterlimit:10"/>
    <line x1="150.83" y1="190.62" x2="148.14" y2="175.18" style="fill:none;stroke:#263238;stroke-miterlimit:10"/>
    <path d="M103.52,135.18s-13,1.2-17.35,3.59S74.41,146,73,149.14s.2,5.58,4.58,8.17,17,8.18,19.14,10.57,12,9.57,12,9.57L119.07,180a42.66,42.66,0,0,1,18-13.95c11.56-4.59,20.33-7.78,21.53-11S156.35,147,149,142A44.29,44.29,0,0,0,128,135C123.46,134.78,103.52,135.18,103.52,135.18Z" style="fill:#263238;stroke:#263238;stroke-miterlimit:10"/>
    <path d="M103.12,138s-3.79,15.36-2,23.93,10.17,19.74,12.76,21.93,9-9.37,13.36-21.93S129,140.57,129,140.57l-.2-2Z" style="fill:#fff;stroke:#263238;stroke-miterlimit:10"/>
    <path d="M104.72,123.22s-2.4,17.94-2,21.33,10.37,17.35,13.36,17.35,11.56-14.75,12.16-18.74-2.39-18-2.39-18Z" style="fill:#cfcfcf;stroke:#263238;stroke-miterlimit:10"/>
    <path d="M104.07,127.39s4.78,6.3,9.12,8a9,9,0,0,0,9.56-1.52,50.69,50.69,0,0,0,4.13-5.43l-1-3.26-21.13-2Z" style="fill:#263238;stroke:#263238;stroke-miterlimit:10"/>
    <rect x="50.81" y="185.28" width="126.57" height="83.85" style="fill:#fff;stroke:#263238;stroke-miterlimit:10"/>
    <path d="M42.44,216.2a2.6,2.6,0,0,0-2.24,2.59,2.4,2.4,0,0,0,1.69,2.39c2.83.94,11.61-.16,15.36-.72,2.72-.41,5.06-1.79,2.54-3.68s-12.87-1.25-12.87-1.25Z" style="fill:#cfcfcf;stroke:#263238;stroke-miterlimit:10"/>
    <path d="M42.94,228.3A2.51,2.51,0,0,0,41,230.9a2.42,2.42,0,0,0,1.45,2.39c2.42.94,10-.16,13.17-.72,2.34-.41,4.34-1.8,2.19-3.68s-11-1.26-11-1.26Z" style="fill:#cfcfcf;stroke:#263238;stroke-miterlimit:10"/>
    <path d="M42.38,222.46a2.67,2.67,0,0,0-2.45,2.59,2.42,2.42,0,0,0,1.85,2.39c3.1.94,12.7-.16,16.81-.72,3-.41,5.54-1.79,2.79-3.68s-14.1-1.26-14.1-1.26Z" style="fill:#cfcfcf;stroke:#263238;stroke-miterlimit:10"/>
    <path d="M42.47,233.29s-.59,3,.09,4.45,6.53,3.4,9,3.12,2.72-1.22.81-2.72-4.21-1.9-4.89-2.58a2.31,2.31,0,0,1-.68-1.5Z" style="fill:#cfcfcf;stroke:#263238;stroke-miterlimit:10"/>
    <path d="M185.88,216.2a2.58,2.58,0,0,1,2.24,2.59,2.4,2.4,0,0,1-1.69,2.39c-2.83.94-11.6-.16-15.36-.72-2.72-.41-5-1.79-2.54-3.68s12.88-1.25,12.88-1.25Z" style="fill:#cfcfcf;stroke:#263238;stroke-miterlimit:10"/>
    <path d="M185.38,228.3a2.5,2.5,0,0,1,1.92,2.6,2.4,2.4,0,0,1-1.45,2.39c-2.42.94-9.95-.16-13.17-.72-2.33-.41-4.34-1.8-2.18-3.68s11-1.26,11-1.26Z" style="fill:#cfcfcf;stroke:#263238;stroke-miterlimit:10"/>
    <path d="M185.94,222.46a2.66,2.66,0,0,1,2.45,2.59,2.42,2.42,0,0,1-1.85,2.39c-3.09.94-12.7-.16-16.81-.72-3-.41-5.54-1.79-2.79-3.68s14.1-1.26,14.1-1.26Z" style="fill:#cfcfcf;stroke:#263238;stroke-miterlimit:10"/>
    <path d="M185.85,233.29s.59,3-.09,4.45-6.53,3.4-9,3.12-2.72-1.22-.82-2.72,4.22-1.9,4.9-2.58a2.31,2.31,0,0,0,.68-1.5Z" style="fill:#cfcfcf;stroke:#263238;stroke-miterlimit:10"/>
    <path d="M94,88.53s-2,25.12.6,28.11,11.16,11.76,15.15,13.76,9.37,2.19,12,.79,14.76-8.37,17.15-13.35S140,87.33,140,87.33s.2-9.77-2.4-15-17.74-8.77-29.11-7S93.15,83.34,94,88.53Z" style="fill:#cfcfcf;stroke:#263238;stroke-miterlimit:10"/>
    <path d="M112.49,110.86s4.19,4.19,10,.4" style="fill:none;stroke:#263238;stroke-miterlimit:10"/>
    <path d="M112.29,120.43s5.19-1.8,9.17.2" style="fill:none;stroke:#263238;stroke-miterlimit:10"/>
    <path d="M108.25,97.39c0,1.6-.84,2.9-1.87,2.9s-1.86-1.3-1.86-2.9.83-2.89,1.86-2.89S108.25,95.79,108.25,97.39Z" style="fill:#263238"/>
    <path d="M130.11,97.39c0,1.6-.84,2.9-1.87,2.9s-1.86-1.3-1.86-2.9.83-2.89,1.86-2.89S130.11,95.79,130.11,97.39Z" style="fill:#263238"/>
    <path d="M100.73,92.91s3.59-3.19,10-1.19" style="fill:none;stroke:#263238;stroke-linecap:round;stroke-miterlimit:10;stroke-width:2px"/>
    <path d="M124.26,92.52s5.58-1.2,9.37,1.19" style="fill:none;stroke:#263238;stroke-linecap:round;stroke-miterlimit:10;stroke-width:2px"/>
    <path d="M91.56,88.13l10.76-.2,2.8-4.39.79,4.19,10.37,1.2,2.39-6,1,5.58L122.26,81l.8,6.78,10.17-.2,2-5.38,1.2,8h5l2.39-.4s0-11.16-4.18-17.14-12-9.37-26.12-9.37S95.35,73.38,94,78.16,91.56,88.13,91.56,88.13Z" style="fill:#263238;stroke:#263238;stroke-miterlimit:10"/>
    <path d="M93.35,101.89s-4,.2-3.79,3.78,3.59,5.39,3.59,5.39Z" style="fill:#cfcfcf;stroke:#263238;stroke-miterlimit:10"/>
    <path d="M140.21,104.88s4,1.39,4,3.59-4.18,5-4.18,5Z" style="fill:#cfcfcf;stroke:#263238;stroke-miterlimit:10"/>
    <text style="fill: rgb(51, 51, 51); font-family: &quot;ADLaM Display&quot;; font-size: 23px; white-space: pre; text-anchor: middle;" transform="matrix(1, 0, 0, 1, 27.724665, 21.032505)"><tspan x="86.998" y="198.853">EMPTY</tspan><tspan x="86.998" dy="1em">​</tspan><tspan>TARGET</tspan></text>
  </g>
  <defs>
    <style bx:fonts="ADLaM Display">@import url(https://fonts.googleapis.com/css2?family=ADLaM+Display%3Aital%2Cwght%400%2C400&amp;display=swap);</style>
    <path id="path-0" d="M 216.061 290.525 C 215.105 260.338 218.535 243.512 229.446 221.691 C 239.115 201.82 259.455 192.014 273.423 181.538 C 286.162 177.652 294.461 178.67 304.015 178.67 C 320.5 188.347 330.786 200.662 337.476 214.043 C 344.615 231.189 346.566 245.137 350.86 258.02 C 353.958 265.172 355.641 269.363 355.641 274.272 C 356.597 275.469 357.773 282.877 358.509 282.877 C 358.509 287.855 362.333 291.94 362.333 296.261 L 363.289 296.261 C 363.289 298.598 364.245 297.748 364.245 300.085" style="fill: none;"/>
    <style bx:fonts="Aclonica">@import url(https://fonts.googleapis.com/css2?family=Aclonica%3Aital%2Cwght%400%2C400&amp;display=swap);</style>
  </defs>
  <text style="fill: rgb(51, 51, 51); font-family: Arial, sans-serif; font-size: 28px; white-space: pre;"><textPath href="#path-0"> </textPath></text>
  <text style="fill: rgb(51, 51, 51); font-family: Aclonica; font-size: 22px; font-weight: 700; letter-spacing: 0.8px; text-anchor: middle; text-transform: uppercase; word-spacing: 21.3px; white-space: pre;" transform="matrix(1, 0, 0, 1, 42.602718, 22.944551)"><tspan x="288.719" y="267.58">YOU DON'T <tspan x="288.718994140625" dy="1.5em">​</tspan>HAVE </tspan><tspan>TARGETS</tspan></text>
</svg>