<svg width="33" height="104" viewBox="0 0 33 104" fill="none" xmlns="http://www.w3.org/2000/svg">
<path fill-rule="evenodd" clip-rule="evenodd" d="M12.9933 27.04H20.6267L19.5126 15.88H14.1093L12.9933 27.04ZM18.5732 25.1801H15.0485L15.7925 17.7401H17.8292L18.5732 25.1801Z" fill="#B8B8B8"/>
<path d="M20.6267 27.04V27.29H20.9029L20.8755 27.0152L20.6267 27.04ZM12.9933 27.04L12.7445 27.0151L12.717 27.29H12.9933V27.04ZM19.5126 15.88L19.7613 15.8552L19.7389 15.63H19.5126V15.88ZM14.1093 15.88V15.63H13.883L13.8605 15.8551L14.1093 15.88ZM15.0485 25.1801L14.7997 25.1552L14.7722 25.4301H15.0485V25.1801ZM18.5732 25.1801V25.4301H18.8494L18.8219 25.1552L18.5732 25.1801ZM15.7925 17.7401V17.4901H15.5662L15.5437 17.7152L15.7925 17.7401ZM17.8292 17.7401L18.0779 17.7152L18.0554 17.4901H17.8292V17.7401ZM20.6267 26.79H12.9933V27.29H20.6267V26.79ZM19.2638 15.9048L20.378 27.0648L20.8755 27.0152L19.7613 15.8552L19.2638 15.9048ZM14.1093 16.13H19.5126V15.63H14.1093V16.13ZM13.242 27.0649L14.358 15.9049L13.8605 15.8551L12.7445 27.0151L13.242 27.0649ZM15.0485 25.4301H18.5732V24.9301H15.0485V25.4301ZM15.5437 17.7152L14.7997 25.1552L15.2972 25.205L16.0412 17.765L15.5437 17.7152ZM17.8292 17.4901H15.7925V17.9901H17.8292V17.4901ZM18.8219 25.1552L18.0779 17.7152L17.5804 17.765L18.3244 25.205L18.8219 25.1552Z" fill="#B8B8B8"/>
<path fill-rule="evenodd" clip-rule="evenodd" d="M3.79 84.7001H29.83C31.3682 84.7001 32.62 83.4483 32.62 81.9101C32.62 80.3718 31.3682 79.1201 29.83 79.1201H3.79C2.25178 79.1201 1 80.3718 1 81.9101C1 83.4483 2.25178 84.7001 3.79 84.7001ZM2.86006 81.9101C2.86006 81.3967 3.2767 80.9801 3.79006 80.9801H29.8301C30.3434 80.9801 30.7601 81.3967 30.7601 81.9101C30.7601 82.4234 30.3434 82.8401 29.8301 82.8401H3.79006C3.2767 82.8401 2.86006 82.4234 2.86006 81.9101Z" fill="#B8B8B8"/>
<path d="M29.83 84.4501H3.79V84.9501H29.83V84.4501ZM32.37 81.9101C32.37 83.3102 31.2301 84.4501 29.83 84.4501V84.9501C31.5063 84.9501 32.87 83.5863 32.87 81.9101H32.37ZM29.83 79.3701C31.2301 79.3701 32.37 80.5099 32.37 81.9101H32.87C32.87 80.2338 31.5063 78.8701 29.83 78.8701V79.3701ZM3.79 79.3701H29.83V78.8701H3.79V79.3701ZM1.25 81.9101C1.25 80.5099 2.38985 79.3701 3.79 79.3701V78.8701C2.11371 78.8701 0.75 80.2338 0.75 81.9101H1.25ZM3.79 84.4501C2.38985 84.4501 1.25 83.3102 1.25 81.9101H0.75C0.75 83.5863 2.11371 84.9501 3.79 84.9501V84.4501ZM3.79006 80.7301C3.13863 80.7301 2.61006 81.2587 2.61006 81.9101H3.11006C3.11006 81.5348 3.41477 81.2301 3.79006 81.2301V80.7301ZM29.8301 80.7301H3.79006V81.2301H29.8301V80.7301ZM31.0101 81.9101C31.0101 81.2587 30.4815 80.7301 29.8301 80.7301V81.2301C30.2053 81.2301 30.5101 81.5348 30.5101 81.9101H31.0101ZM29.8301 83.0901C30.4815 83.0901 31.0101 82.5615 31.0101 81.9101H30.5101C30.5101 82.2854 30.2053 82.5901 29.8301 82.5901V83.0901ZM3.79006 83.0901H29.8301V82.5901H3.79006V83.0901ZM2.61006 81.9101C2.61006 82.5615 3.13863 83.0901 3.79006 83.0901V82.5901C3.41477 82.5901 3.11006 82.2854 3.11006 81.9101H2.61006Z" fill="#B8B8B8"/>
<path fill-rule="evenodd" clip-rule="evenodd" d="M10.2999 99.58H23.3199V82.84H10.2999V99.58ZM21.46 97.7201H12.16V84.7001H21.46V97.7201Z" fill="#B8B8B8"/>
<path d="M23.3199 99.58V99.83H23.5699V99.58H23.3199ZM10.2999 99.58H10.0499V99.83H10.2999V99.58ZM23.3199 82.84H23.5699V82.59H23.3199V82.84ZM10.2999 82.84V82.59H10.0499V82.84H10.2999ZM12.16 97.7201H11.91V97.9701H12.16V97.7201ZM21.46 97.7201V97.9701H21.71V97.7201H21.46ZM12.16 84.7001V84.4501H11.91V84.7001H12.16ZM21.46 84.7001H21.71V84.4501H21.46V84.7001ZM23.3199 99.33H10.2999V99.83H23.3199V99.33ZM23.0699 82.84V99.58H23.5699V82.84H23.0699ZM10.2999 83.09H23.3199V82.59H10.2999V83.09ZM10.5499 99.58V82.84H10.0499V99.58H10.5499ZM12.16 97.9701H21.46V97.4701H12.16V97.9701ZM11.91 84.7001V97.7201H12.41V84.7001H11.91ZM21.46 84.4501H12.16V84.9501H21.46V84.4501ZM21.71 97.7201V84.7001H21.21V97.7201H21.71Z" fill="#B8B8B8"/>
<path fill-rule="evenodd" clip-rule="evenodd" d="M7.51009 103.3H26.1101C27.6483 103.3 28.9001 102.048 28.9001 100.51C28.9001 98.9718 27.6483 97.72 26.1101 97.72H7.51009C5.97187 97.72 4.72009 98.9718 4.72009 100.51C4.72009 102.048 5.97187 103.3 7.51009 103.3ZM6.58017 100.51C6.58017 99.9967 6.99681 99.58 7.51017 99.58H26.1102C26.6235 99.58 27.0402 99.9967 27.0402 100.51C27.0402 101.023 26.6235 101.44 26.1102 101.44H7.51017C6.99681 101.44 6.58017 101.023 6.58017 100.51Z" fill="#B8B8B8"/>
<path d="M26.1101 103.05H7.51009V103.55H26.1101V103.05ZM28.6501 100.51C28.6501 101.91 27.5102 103.05 26.1101 103.05V103.55C27.7864 103.55 29.1501 102.186 29.1501 100.51H28.6501ZM26.1101 97.97C27.5102 97.97 28.6501 99.1098 28.6501 100.51H29.1501C29.1501 98.8337 27.7864 97.47 26.1101 97.47V97.97ZM7.51009 97.97H26.1101V97.47H7.51009V97.97ZM4.97009 100.51C4.97009 99.1098 6.10994 97.97 7.51009 97.97V97.47C5.8338 97.47 4.47009 98.8337 4.47009 100.51H4.97009ZM7.51009 103.05C6.10994 103.05 4.97009 101.91 4.97009 100.51H4.47009C4.47009 102.186 5.8338 103.55 7.51009 103.55V103.05ZM7.51017 99.33C6.85874 99.33 6.33017 99.8586 6.33017 100.51H6.83017C6.83017 100.135 7.13488 99.83 7.51017 99.83V99.33ZM26.1102 99.33H7.51017V99.83H26.1102V99.33ZM27.2902 100.51C27.2902 99.8586 26.7616 99.33 26.1102 99.33V99.83C26.4855 99.83 26.7902 100.135 26.7902 100.51H27.2902ZM26.1102 101.69C26.7616 101.69 27.2902 101.161 27.2902 100.51H26.7902C26.7902 100.885 26.4855 101.19 26.1102 101.19V101.69ZM7.51017 101.69H26.1102V101.19H7.51017V101.69ZM6.33017 100.51C6.33017 101.161 6.85874 101.69 7.51017 101.69V101.19C7.13488 101.19 6.83017 100.885 6.83017 100.51H6.33017Z" fill="#B8B8B8"/>
<rect x="15.8801" y="1" width="1.86" height="15.81" fill="#B8B8B8" stroke="#B8B8B8" stroke-width="0.5"/>
<path fill-rule="evenodd" clip-rule="evenodd" d="M4.72009 80.9799H28.9001V27.2241L19.801 25.2023L14.0201 25.1799L4.72009 27.2241V80.9799ZM27.0402 79.12H6.58017V28.7159L14.1206 27.04H19.4979L27.0402 28.7159V79.12Z" fill="#B8B8B8"/>
<path d="M28.9001 80.9799V81.2299H29.1501V80.9799H28.9001ZM4.72009 80.9799H4.47009V81.2299H4.72009V80.9799ZM28.9001 27.2241H29.1501V27.0235L28.9543 26.98L28.9001 27.2241ZM19.801 25.2023L19.8552 24.9582L19.8289 24.9524L19.8019 24.9523L19.801 25.2023ZM14.0201 25.1799L14.0211 24.9299L13.9934 24.9298L13.9664 24.9358L14.0201 25.1799ZM4.72009 27.2241L4.66642 26.9799L4.47009 27.0231V27.2241H4.72009ZM6.58017 79.12H6.33017V79.37H6.58017V79.12ZM27.0402 79.12V79.37H27.2902V79.12H27.0402ZM6.58017 28.7159L6.52593 28.4718L6.33017 28.5153V28.7159H6.58017ZM14.1206 27.04V26.79H14.0932L14.0664 26.796L14.1206 27.04ZM19.4979 27.04L19.5521 26.796L19.5253 26.79H19.4979V27.04ZM27.0402 28.7159H27.2902V28.5153L27.0944 28.4718L27.0402 28.7159ZM28.9001 80.7299H4.72009V81.2299H28.9001V80.7299ZM28.6501 27.2241V80.9799H29.1501V27.2241H28.6501ZM19.7467 25.4463L28.8459 27.4681L28.9543 26.98L19.8552 24.9582L19.7467 25.4463ZM14.0191 25.4299L19.8 25.4522L19.8019 24.9523L14.0211 24.9299L14.0191 25.4299ZM4.77376 27.4682L14.0738 25.4241L13.9664 24.9358L4.66642 26.9799L4.77376 27.4682ZM4.97009 80.9799V27.2241H4.47009V80.9799H4.97009ZM6.58017 79.37H27.0402V78.87H6.58017V79.37ZM6.33017 28.7159V79.12H6.83017V28.7159H6.33017ZM14.0664 26.796L6.52593 28.4718L6.63441 28.9599L14.1748 27.284L14.0664 26.796ZM19.4979 26.79H14.1206V27.29H19.4979V26.79ZM27.0944 28.4718L19.5521 26.796L19.4436 27.284L26.9859 28.9599L27.0944 28.4718ZM27.2902 79.12V28.7159H26.7902V79.12H27.2902Z" fill="#B8B8B8"/>
</svg>
