<?xml version="1.0" encoding="utf-8"?>
<svg xmlns="http://www.w3.org/2000/svg" viewBox="258.3309 186.4483 23.2996 23.3001" width="23.2996px" height="23.3001px">
  <g transform="matrix(0.0045540002174675465, 0, 0, -0.0045540002174675465, 258.3140563964844, 209.7608184814453)" fill="#000000" stroke="none" style="">
    <path d="M3875 5095 c-17 -16 -25 -35 -25 -57 0 -78 53 -464 67 -486 34 -54 124 -45 139 14 4 14 -6 132 -21 262 -27 228 -30 238 -56 265 -34 34 -72 35 -104 2z" style="fill: rgb(184, 184, 184);"/>
    <path d="M4451 5001 c-25 -25 -211 -406 -218 -446 -9 -54 60 -101 113 -76 32 14 234 419 234 468 0 63 -84 99 -129 54z" style="fill: rgb(184, 184, 184);"/>
    <path d="M4703 4476 c-127 -63 -216 -112 -222 -124 -18 -34 -13 -71 15 -99 20 -20 32 -24 57 -20 41 7 423 193 448 218 25 25 25 79 -1 107 -36 39 -71 29 -297 -82z" style="fill: rgb(184, 184, 184);"/>
    <path d="M3410 3831 l-695 -588 -130 126 c-164 159 -194 176 -325 176 -80 0 -102 -4 -140 -23 -111 -58 -182 -171 -182 -290 1 -80 20 -137 66 -201 l35 -47 -143 -143 -143 -143 -39 20 c-68 35 -145 52 -230 52 -102 0 -189 -25 -270 -79 -37 -24 -259 -240 -591 -572 -503 -505 -533 -538 -566 -607 -69 -144 -71 -290 -6 -434 32 -70 51 -92 483 -526 435 -437 454 -455 532 -493 148 -74 295 -75 446 -3 69 33 99 62 619 582 571 572 588 591 623 711 32 108 17 262 -36 365 l-20 39 143 143 143 143 47 -35 c64 -47 118 -64 203 -64 128 0 236 72 291 193 24 51 27 68 23 140 -5 117 -27 156 -179 312 l-126 130 439 520 c242 286 507 599 588 696 l148 176 -156 156 -157 155 -695 -587z m745 319 l49 -49 -50 -58 c-28 -32 -267 -315 -532 -630 -266 -315 -486 -574 -490 -577 -5 -3 -75 62 -156 143 l-148 149 88 75 c450 382 1180 996 1184 997 3 0 28 -22 55 -50z m-1828 -771 c36 -13 1028 -1003 1048 -1045 65 -138 -81 -284 -219 -219 -17 8 -260 244 -538 523 -549 550 -528 525 -515 622 13 97 125 157 224 119z m403 -1364 l-140 -140 -357 357 -358 358 140 140 140 140 357 -357 358 -358 -140 -140z m-1123 574 c54 -20 87 -50 501 -463 497 -495 494 -492 500 -626 3 -59 -1 -88 -19 -135 -20 -54 -41 -79 -225 -265 l-204 -205 -226 227 -227 226 87 222 c88 225 92 244 59 282 -32 36 -57 31 -284 -58 l-221 -87 -227 227 -226 226 205 204 c178 176 212 206 260 224 74 28 171 29 247 1z m-622 -749 c109 -109 197 -201 195 -203 -3 -2 -34 -19 -70 -38 -92 -48 -179 -133 -220 -215 -30 -58 -34 -77 -34 -138 0 -98 35 -168 128 -262 95 -94 164 -128 262 -128 61 0 81 4 138 34 83 41 168 130 216 223 19 37 37 67 40 67 3 0 95 -90 205 -200 l200 -200 -275 -275 c-321 -322 -347 -340 -480 -339 -141 1 -129 -9 -627 487 -502 501 -497 494 -497 637 0 134 13 153 332 473 152 152 279 277 282 277 3 0 95 -90 205 -200z m651 -227 c-42 -116 -128 -328 -159 -389 -47 -93 -124 -177 -183 -200 -67 -26 -111 -9 -195 75 -83 82 -100 129 -74 197 24 62 111 138 220 190 66 32 384 161 402 164 1 0 -4 -17 -11 -37z" style="fill: rgb(184, 184, 184);"/>
    <path d="M4549 4050 c-46 -27 -44 -104 3 -133 22 -14 408 -67 486 -67 41 0 82 38 82 75 0 16 -11 38 -27 54 -27 26 -38 28 -253 54 -246 30 -267 31 -291 17z" style="fill: rgb(184, 184, 184);"/>
  </g>
</svg>