<svg width="42" height="42" viewBox="0 0 42 42" fill="none" xmlns="http://www.w3.org/2000/svg">
<path fill-rule="evenodd" clip-rule="evenodd" d="M1.88272 21.4446H10.4226C10.8791 21.4446 11.2491 21.0798 11.2492 20.6299V13.4337C11.2492 10.6636 8.96289 8.40994 6.15272 8.40994C3.34256 8.40994 1.05627 10.6636 1.05627 13.4337V20.6299C1.05627 21.0798 1.42627 21.4446 1.88272 21.4446ZM9.59619 19.8152H2.70917H2.70908V13.4337C2.70908 11.562 4.2538 10.0393 6.15264 10.0393C8.05148 10.0393 9.59619 11.562 9.59619 13.4337V19.8152Z" fill="#B8B8B8"/>
<path d="M11.2492 20.6299L11.4992 20.6299V20.6299H11.2492ZM9.59619 19.8152V20.0652H9.84619V19.8152H9.59619ZM2.70908 19.8152H2.45908V20.0652H2.70908V19.8152ZM10.4226 21.1946H1.88272V21.6946H10.4226V21.1946ZM10.9992 20.6299C10.9991 20.9383 10.7444 21.1946 10.4226 21.1946V21.6946C11.0138 21.6946 11.4991 21.2212 11.4992 20.6299L10.9992 20.6299ZM10.9992 13.4337V20.6299H11.4992V13.4337H10.9992ZM6.15272 8.65994C8.82821 8.65994 10.9992 10.8051 10.9992 13.4337H11.4992C11.4992 10.5222 9.09756 8.15994 6.15272 8.15994V8.65994ZM1.30627 13.4337C1.30627 10.8051 3.47723 8.65994 6.15272 8.65994V8.15994C3.20788 8.15994 0.806274 10.5222 0.806274 13.4337H1.30627ZM1.30627 20.6299V13.4337H0.806274V20.6299H1.30627ZM1.88272 21.1946C1.56097 21.1946 1.30627 20.9383 1.30627 20.6299H0.806274C0.806274 21.2212 1.29158 21.6946 1.88272 21.6946V21.1946ZM2.70917 20.0652H9.59619V19.5652H2.70917V20.0652ZM2.70908 20.0652H2.70917V19.5652H2.70908V20.0652ZM2.45908 13.4337V19.8152H2.95908V13.4337H2.45908ZM6.15264 9.78927C4.11912 9.78927 2.45908 11.4205 2.45908 13.4337H2.95908C2.95908 11.7034 4.38847 10.2893 6.15264 10.2893V9.78927ZM9.84619 13.4337C9.84619 11.4206 8.18616 9.78927 6.15264 9.78927V10.2893C7.9168 10.2893 9.34619 11.7035 9.34619 13.4337H9.84619ZM9.84619 19.8152V13.4337H9.34619V19.8152H9.84619Z" fill="#B8B8B8"/>
<path fill-rule="evenodd" clip-rule="evenodd" d="M1.05627 27.826C1.05627 30.5961 3.34256 32.8498 6.15272 32.8498C8.96289 32.8498 11.2491 30.5961 11.2491 27.826V20.6298C11.2491 20.1799 10.8791 19.8152 10.4226 19.8152H1.88272C1.42627 19.8152 1.05627 20.1799 1.05627 20.6298V27.826ZM2.70917 27.826V21.4446H9.59627V27.826C9.59627 29.6978 8.05148 31.2204 6.15272 31.2204C4.25396 31.2204 2.70917 29.6978 2.70917 27.826Z" fill="#B8B8B8"/>
<path d="M2.70917 21.4446V21.1946H2.45917V21.4446H2.70917ZM9.59627 21.4446H9.84627V21.1946H9.59627V21.4446ZM6.15272 32.5998C3.47723 32.5998 1.30627 30.4546 1.30627 27.826H0.806274C0.806274 30.7375 3.20788 33.0998 6.15272 33.0998V32.5998ZM10.9991 27.826C10.9991 30.4547 8.82821 32.5998 6.15272 32.5998V33.0998C9.09757 33.0998 11.4991 30.7375 11.4991 27.826H10.9991ZM10.9991 20.6298V27.826H11.4991V20.6298H10.9991ZM10.4226 20.0652C10.7444 20.0652 10.9991 20.3213 10.9991 20.6298H11.4991C11.4991 20.0384 11.0138 19.5652 10.4226 19.5652V20.0652ZM1.88272 20.0652H10.4226V19.5652H1.88272V20.0652ZM1.30627 20.6298C1.30627 20.3213 1.56095 20.0652 1.88272 20.0652V19.5652C1.2916 19.5652 0.806274 20.0384 0.806274 20.6298H1.30627ZM1.30627 27.826V20.6298H0.806274V27.826H1.30627ZM2.45917 21.4446V27.826H2.95917V21.4446H2.45917ZM9.59627 21.1946H2.70917V21.6946H9.59627V21.1946ZM9.84627 27.826V21.4446H9.34627V27.826H9.84627ZM6.15272 31.4704C8.18615 31.4704 9.84627 29.8392 9.84627 27.826H9.34627C9.34627 29.5563 7.91681 30.9704 6.15272 30.9704V31.4704ZM2.45917 27.826C2.45917 29.8392 4.11929 31.4704 6.15272 31.4704V30.9704C4.38863 30.9704 2.95917 29.5563 2.95917 27.826H2.45917Z" fill="#B8B8B8"/>
<path fill-rule="evenodd" clip-rule="evenodd" d="M20.1482 34.4592C20.3031 34.612 20.5134 34.6978 20.7326 34.6978C20.9517 34.6978 21.1619 34.612 21.3169 34.4592L27.3555 28.5066C27.5105 28.3538 27.5976 28.1466 27.5976 27.9306C27.5976 27.7145 27.5105 27.5074 27.3555 27.3545L22.2164 22.2887C21.2538 21.3399 19.974 20.8173 18.6127 20.8173C17.2515 20.8173 15.9716 21.3399 15.0091 22.2887C14.0465 23.2375 13.5164 24.4991 13.5164 25.841C13.5164 27.1829 14.0465 28.4445 15.0091 29.3933L20.1482 34.4592ZM16.1778 23.4408C16.8282 22.7997 17.693 22.4466 18.6127 22.4466C19.5326 22.4466 20.3973 22.7997 21.0476 23.4408L25.6023 27.9305L20.7325 32.731L16.1778 28.2412C15.5273 27.6002 15.1692 26.7477 15.1692 25.841C15.1692 24.9343 15.5273 24.0819 16.1778 23.4408Z" fill="#B8B8B8"/>
<path d="M20.1482 34.4592L19.9727 34.6373L19.9727 34.6373L20.1482 34.4592ZM21.3169 34.4592L21.4924 34.6373L21.4924 34.6373L21.3169 34.4592ZM27.3555 28.5066L27.531 28.6847L27.5311 28.6846L27.3555 28.5066ZM27.3555 27.3545L27.5311 27.1765L27.531 27.1765L27.3555 27.3545ZM22.2164 22.2887L22.0409 22.4667L22.0409 22.4667L22.2164 22.2887ZM15.0091 22.2887L14.8336 22.1107L14.8336 22.1107L15.0091 22.2887ZM15.0091 29.3933L15.1846 29.2153L15.1846 29.2153L15.0091 29.3933ZM16.1778 23.4408L16.3533 23.6189L16.3533 23.6188L16.1778 23.4408ZM21.0476 23.4408L20.8721 23.6188L20.8721 23.6188L21.0476 23.4408ZM25.6023 27.9305L25.7778 28.1085L25.9584 27.9305L25.7778 27.7525L25.6023 27.9305ZM20.7325 32.731L20.557 32.909L20.7325 33.082L20.908 32.909L20.7325 32.731ZM16.1778 28.2412L16.3533 28.0632L16.3533 28.0632L16.1778 28.2412ZM20.7326 34.4478C20.5785 34.4478 20.4315 34.3875 20.3237 34.2812L19.9727 34.6373C20.1748 34.8365 20.4482 34.9478 20.7326 34.9478V34.4478ZM21.1415 34.2811C21.0335 34.3875 20.8865 34.4478 20.7326 34.4478V34.9478C21.0169 34.9478 21.2903 34.8365 21.4924 34.6373L21.1415 34.2811ZM27.18 28.3286L21.1414 34.2812L21.4924 34.6373L27.531 28.6847L27.18 28.3286ZM27.3476 27.9306C27.3476 28.0791 27.2877 28.2223 27.18 28.3286L27.5311 28.6846C27.7332 28.4852 27.8476 28.2142 27.8476 27.9306H27.3476ZM27.18 27.5325C27.2877 27.6388 27.3476 27.7821 27.3476 27.9306H27.8476C27.8476 27.647 27.7332 27.3759 27.5311 27.1765L27.18 27.5325ZM22.0409 22.4667L27.18 27.5326L27.531 27.1765L22.3919 22.1107L22.0409 22.4667ZM18.6127 21.0673C19.9088 21.0673 21.1254 21.5644 22.0409 22.4667L22.3919 22.1107C21.3822 21.1154 20.0391 20.5673 18.6127 20.5673V21.0673ZM15.1846 22.4668C16.1 21.5645 17.3167 21.0673 18.6127 21.0673V20.5673C17.1863 20.5673 15.8433 21.1154 14.8336 22.1107L15.1846 22.4668ZM13.7664 25.841C13.7664 24.5665 14.2693 23.369 15.1846 22.4667L14.8336 22.1107C13.8238 23.1061 13.2664 24.4316 13.2664 25.841H13.7664ZM15.1846 29.2153C14.2693 28.313 13.7664 27.1154 13.7664 25.841H13.2664C13.2664 27.2504 13.8238 28.5759 14.8336 29.5714L15.1846 29.2153ZM20.3237 34.2812L15.1846 29.2153L14.8336 29.5713L19.9727 34.6373L20.3237 34.2812ZM18.6127 22.1966C17.6278 22.1966 16.6998 22.5751 16.0023 23.2628L16.3533 23.6188C16.9565 23.0242 17.7581 22.6966 18.6127 22.6966V22.1966ZM21.2231 23.2628C20.5256 22.5751 19.5977 22.1966 18.6127 22.1966V22.6966C19.4674 22.6966 20.2689 23.0242 20.8721 23.6188L21.2231 23.2628ZM25.7778 27.7525L21.2231 23.2628L20.8721 23.6188L25.4268 28.1085L25.7778 27.7525ZM20.908 32.909L25.7778 28.1085L25.4268 27.7525L20.557 32.5529L20.908 32.909ZM16.0023 28.4193L20.557 32.909L20.908 32.5529L16.3533 28.0632L16.0023 28.4193ZM14.9192 25.841C14.9192 26.8152 15.3046 27.7316 16.0023 28.4193L16.3533 28.0632C15.7501 27.4687 15.4192 26.6802 15.4192 25.841H14.9192ZM16.0023 23.2628C15.3046 23.9504 14.9192 24.8669 14.9192 25.841H15.4192C15.4192 25.0018 15.7501 24.2133 16.3533 23.6189L16.0023 23.2628Z" fill="#B8B8B8"/>
<path fill-rule="evenodd" clip-rule="evenodd" d="M25.2871 39.525C26.2497 40.4738 27.5295 40.9964 28.8908 40.9964C30.2522 40.9964 31.532 40.4738 32.4945 39.5249C33.4571 38.576 33.9872 37.3145 33.9872 35.9725C33.9872 34.6307 33.457 33.3691 32.4945 32.4203L27.3554 27.3544C27.2004 27.2016 26.9902 27.1158 26.771 27.1158C26.5519 27.1158 26.3417 27.2016 26.1866 27.3544L20.1481 33.307C19.8253 33.6252 19.8253 34.141 20.1481 34.4591L25.2871 39.525ZM26.4559 38.3729L21.9012 33.8832L26.7711 29.0827L31.3257 33.5725C31.9762 34.2135 32.3343 35.066 32.3343 35.9726C32.3343 36.8793 31.9762 37.7318 31.3257 38.3729C30.6754 39.014 29.8106 39.3671 28.8908 39.3671C27.971 39.3671 27.1062 39.014 26.4559 38.3729Z" fill="#B8B8B8"/>
<path d="M25.2871 39.525L25.4626 39.3469L25.2871 39.525ZM32.4945 39.5249L32.319 39.3468L32.319 39.3469L32.4945 39.5249ZM32.4945 32.4203L32.67 32.2422L32.67 32.2422L32.4945 32.4203ZM27.3554 27.3544L27.5309 27.1763L27.5309 27.1763L27.3554 27.3544ZM26.1866 27.3544L26.0112 27.1763L26.0111 27.1763L26.1866 27.3544ZM20.1481 33.307L19.9725 33.1289L19.9725 33.1289L20.1481 33.307ZM20.1481 34.4591L20.3236 34.2811L20.1481 34.4591ZM21.9012 33.8832L21.7257 33.7051L21.5451 33.8832L21.7257 34.0612L21.9012 33.8832ZM26.4559 38.3729L26.6314 38.1948L26.6314 38.1948L26.4559 38.3729ZM26.7711 29.0827L26.9466 28.9046L26.7711 28.7316L26.5956 28.9046L26.7711 29.0827ZM31.3257 33.5725L31.1502 33.7505L31.1502 33.7505L31.3257 33.5725ZM31.3257 38.3729L31.1502 38.1948L31.1502 38.1948L31.3257 38.3729ZM28.8908 40.7464C27.5946 40.7464 26.3781 40.2493 25.4626 39.3469L25.1116 39.703C26.1213 40.6983 27.4643 41.2464 28.8908 41.2464V40.7464ZM32.319 39.3469C31.4037 40.2493 30.187 40.7464 28.8908 40.7464V41.2464C30.3173 41.2464 31.6604 40.6983 32.67 39.7029L32.319 39.3469ZM33.7372 35.9725C33.7372 37.2471 33.2343 38.4446 32.319 39.3468L32.67 39.7029C33.6798 38.7075 34.2372 37.382 34.2372 35.9725H33.7372ZM32.319 32.5983C33.2342 33.5006 33.7372 34.6982 33.7372 35.9725H34.2372C34.2372 34.5632 33.6797 33.2377 32.67 32.2422L32.319 32.5983ZM27.1799 27.5324L32.319 32.5983L32.67 32.2422L27.5309 27.1763L27.1799 27.5324ZM26.771 27.3658C26.925 27.3658 27.072 27.4261 27.18 27.5325L27.5309 27.1763C27.3287 26.9771 27.0554 26.8658 26.771 26.8658V27.3658ZM26.3621 27.5325C26.47 27.4261 26.6171 27.3658 26.771 27.3658V26.8658C26.4866 26.8658 26.2133 26.9771 26.0112 27.1763L26.3621 27.5325ZM20.3236 33.485L26.3622 27.5324L26.0111 27.1763L19.9725 33.1289L20.3236 33.485ZM20.3236 34.2811C20.1002 34.0609 20.1001 33.7053 20.3236 33.485L19.9725 33.1289C19.5505 33.545 19.5505 34.2211 19.9725 34.6372L20.3236 34.2811ZM25.4626 39.3469L20.3236 34.2811L19.9725 34.6372L25.1116 39.703L25.4626 39.3469ZM21.7257 34.0612L26.2804 38.5509L26.6314 38.1948L22.0767 33.7051L21.7257 34.0612ZM26.5956 28.9046L21.7257 33.7051L22.0767 34.0612L26.9466 29.2607L26.5956 28.9046ZM31.5012 33.3944L26.9466 28.9046L26.5956 29.2607L31.1502 33.7505L31.5012 33.3944ZM32.5843 35.9726C32.5843 34.9985 32.1989 34.0821 31.5012 33.3944L31.1502 33.7505C31.7534 34.345 32.0843 35.1334 32.0843 35.9726H32.5843ZM31.5012 38.5509C32.1989 37.8632 32.5843 36.9468 32.5843 35.9726H32.0843C32.0843 36.8119 31.7534 37.6004 31.1502 38.1948L31.5012 38.5509ZM28.8908 39.6171C29.8758 39.6171 30.8038 39.2385 31.5013 38.5509L31.1502 38.1948C30.5471 38.7895 29.7455 39.1171 28.8908 39.1171V39.6171ZM26.2804 38.5509C26.9779 39.2385 27.9059 39.6171 28.8908 39.6171V39.1171C28.0362 39.1171 27.2346 38.7895 26.6314 38.1948L26.2804 38.5509Z" fill="#B8B8B8"/>
<path fill-rule="evenodd" clip-rule="evenodd" d="M33.3066 14.6153C33.468 14.7744 33.6794 14.8539 33.891 14.8539C34.1026 14.8539 34.3141 14.7743 34.4754 14.6153L39.5084 9.65402C41.4954 7.69532 41.4954 4.50811 39.5084 2.54942C38.5458 1.60058 37.266 1.07797 35.9047 1.07797C34.5434 1.07797 33.2636 1.60058 32.301 2.54942L27.2679 7.51072C27.113 7.66347 27.0259 7.87072 27.0259 8.08677C27.0259 8.30282 27.113 8.51007 27.2679 8.66282L33.3066 14.6153ZM33.8911 12.8871L29.0212 8.08669L33.4698 3.70143C34.1202 3.06029 34.985 2.70722 35.9048 2.70722C36.8246 2.70722 37.6893 3.06029 38.3397 3.70143C39.6823 5.02494 39.6823 7.17842 38.3397 8.50192L33.8911 12.8871Z" fill="#B8B8B8"/>
<path d="M33.3066 14.6153L33.4821 14.4373L33.4821 14.4373L33.3066 14.6153ZM34.4754 14.6153L34.6509 14.7934L34.6509 14.7934L34.4754 14.6153ZM39.5084 9.65402L39.3329 9.47598L39.3329 9.47598L39.5084 9.65402ZM39.5084 2.54942L39.3329 2.72746L39.5084 2.54942ZM32.301 2.54942L32.1255 2.37138L32.301 2.54942ZM27.2679 7.51072L27.0924 7.33268H27.0924L27.2679 7.51072ZM27.2679 8.66282L27.0924 8.84086L27.0924 8.84086L27.2679 8.66282ZM29.0212 8.08669L28.8457 7.90865L28.665 8.08669L28.8457 8.26473L29.0212 8.08669ZM33.8911 12.8871L33.7156 13.0651L33.8911 13.2381L34.0666 13.0651L33.8911 12.8871ZM33.4698 3.70143L33.6453 3.87948L33.6454 3.87946L33.4698 3.70143ZM38.3397 3.70143L38.1642 3.87946L38.1642 3.87948L38.3397 3.70143ZM38.3397 8.50192L38.1642 8.32388L38.3397 8.50192ZM33.891 14.6039C33.7419 14.6039 33.5945 14.5481 33.4821 14.4373L33.1311 14.7934C33.3415 15.0008 33.617 15.1039 33.891 15.1039V14.6039ZM34.2999 14.4373C34.1876 14.548 34.0401 14.6039 33.891 14.6039V15.1039C34.1651 15.1039 34.4406 15.0007 34.6509 14.7934L34.2999 14.4373ZM39.3329 9.47598L34.2999 14.4373L34.6509 14.7934L39.6839 9.83206L39.3329 9.47598ZM39.3329 2.72746C41.2205 4.58824 41.2205 7.6152 39.3329 9.47598L39.6839 9.83206C41.7702 7.77545 41.7702 4.42799 39.6839 2.37138L39.3329 2.72746ZM35.9047 1.32797C37.2009 1.32797 38.4174 1.82509 39.3329 2.72746L39.6839 2.37138C38.6742 1.37606 37.3312 0.827972 35.9047 0.827972V1.32797ZM32.4765 2.72746C33.3919 1.8251 34.6086 1.32797 35.9047 1.32797V0.827972C34.4782 0.827972 33.1352 1.37606 32.1255 2.37138L32.4765 2.72746ZM27.4434 7.68876L32.4765 2.72746L32.1255 2.37138L27.0924 7.33268L27.4434 7.68876ZM27.2759 8.08677C27.2759 7.9382 27.3358 7.79492 27.4434 7.68876L27.0924 7.33268C26.8902 7.53202 26.7759 7.80324 26.7759 8.08677H27.2759ZM27.4434 8.48478C27.3358 8.37862 27.2759 8.23534 27.2759 8.08677H26.7759C26.7759 8.3703 26.8902 8.64152 27.0924 8.84086L27.4434 8.48478ZM33.4821 14.4373L27.4434 8.48478L27.0924 8.84086L33.1311 14.7934L33.4821 14.4373ZM28.8457 8.26473L33.7156 13.0651L34.0666 12.7091L29.1967 7.90865L28.8457 8.26473ZM33.2943 3.52339L28.8457 7.90865L29.1967 8.26473L33.6453 3.87948L33.2943 3.52339ZM35.9048 2.45722C34.9198 2.45722 33.9918 2.83577 33.2943 3.5234L33.6454 3.87946C34.2485 3.28482 35.0501 2.95722 35.9048 2.95722V2.45722ZM38.5152 3.5234C37.8177 2.83577 36.8897 2.45722 35.9048 2.45722V2.95722C36.7594 2.95722 37.561 3.28482 38.1642 3.87946L38.5152 3.5234ZM38.5152 8.67997C39.9572 7.25855 39.9572 4.94481 38.5152 3.52339L38.1642 3.87948C39.4075 5.10507 39.4075 7.09829 38.1642 8.32388L38.5152 8.67997ZM34.0666 13.0651L38.5152 8.67997L38.1642 8.32388L33.7156 12.7091L34.0666 13.0651Z" fill="#B8B8B8"/>
<path fill-rule="evenodd" clip-rule="evenodd" d="M22.2349 19.5765C23.1975 20.5254 24.4772 21.048 25.8385 21.048C27.1999 21.048 28.4797 20.5255 29.4423 19.5765L34.4754 14.6152C34.6304 14.4625 34.7175 14.2552 34.7175 14.0392C34.7175 13.8231 34.6304 13.6159 34.4754 13.4631L28.4367 7.51063C28.1138 7.1925 27.5907 7.19258 27.2679 7.51063L22.2349 12.4719C20.2479 14.4306 20.2479 17.6178 22.2349 19.5765ZM23.4037 13.6239L27.8523 9.23878L32.7222 14.0392L28.2735 18.4244C27.6232 19.0656 26.7584 19.4187 25.8385 19.4187C24.9188 19.4187 24.054 19.0656 23.4037 18.4244C22.061 17.1009 22.061 14.9475 23.4037 13.6239Z" fill="#B8B8B8"/>
<path d="M22.2349 19.5765L22.4104 19.3985L22.2349 19.5765ZM29.4423 19.5765L29.6178 19.7546L29.4423 19.5765ZM34.4754 14.6152L34.6509 14.7933L34.4754 14.6152ZM34.4754 13.4631L34.6509 13.2851L34.6509 13.2851L34.4754 13.4631ZM28.4367 7.51063L28.6122 7.33259L28.6122 7.33254L28.4367 7.51063ZM27.2679 7.51063L27.0924 7.33254L27.0924 7.33259L27.2679 7.51063ZM22.2349 12.4719L22.4104 12.65L22.4104 12.65L22.2349 12.4719ZM27.8523 9.23878L28.0278 9.06073L27.8523 8.88773L27.6768 9.06073L27.8523 9.23878ZM23.4037 13.6239L23.2282 13.4459L23.4037 13.6239ZM32.7222 14.0392L32.8977 14.2172L33.0783 14.0392L32.8977 13.8611L32.7222 14.0392ZM28.2735 18.4244L28.098 18.2464L28.098 18.2464L28.2735 18.4244ZM23.4037 18.4244L23.5792 18.2464L23.5792 18.2464L23.4037 18.4244ZM25.8385 20.798C24.5424 20.798 23.3258 20.3009 22.4104 19.3985L22.0594 19.7546C23.0691 20.7499 24.412 21.298 25.8385 21.298V20.798ZM29.2668 19.3985C28.3513 20.3009 27.1348 20.798 25.8385 20.798V21.298C27.2651 21.298 28.608 20.75 29.6178 19.7546L29.2668 19.3985ZM34.2999 14.4372L29.2668 19.3985L29.6178 19.7546L34.6509 14.7933L34.2999 14.4372ZM34.4675 14.0392C34.4675 14.1877 34.4076 14.331 34.2999 14.4372L34.6509 14.7933C34.8531 14.5939 34.9675 14.3227 34.9675 14.0392H34.4675ZM34.2999 13.6412C34.4076 13.7473 34.4675 13.8906 34.4675 14.0392H34.9675C34.9675 13.7557 34.8531 13.4844 34.6509 13.2851L34.2999 13.6412ZM28.2612 7.68867L34.2999 13.6412L34.6509 13.2851L28.6122 7.33259L28.2612 7.68867ZM27.4433 7.68871C27.6688 7.46654 28.0357 7.46649 28.2613 7.68871L28.6122 7.33254C28.1919 6.91852 27.5125 6.91863 27.0924 7.33254L27.4433 7.68871ZM22.4104 12.65L27.4434 7.68867L27.0924 7.33259L22.0594 12.2939L22.4104 12.65ZM22.4104 19.3985C20.5227 17.5377 20.5227 14.5108 22.4104 12.65L22.0594 12.2939C19.973 14.3505 19.973 17.698 22.0594 19.7546L22.4104 19.3985ZM27.6768 9.06073L23.2282 13.4459L23.5792 13.802L28.0278 9.41682L27.6768 9.06073ZM32.8977 13.8611L28.0278 9.06073L27.6768 9.41682L32.5467 14.2172L32.8977 13.8611ZM28.449 18.6025L32.8977 14.2172L32.5467 13.8611L28.098 18.2464L28.449 18.6025ZM25.8385 19.6687C26.8235 19.6687 27.7515 19.2901 28.449 18.6025L28.098 18.2464C27.4948 18.8411 26.6932 19.1687 25.8385 19.1687V19.6687ZM23.2281 18.6025C23.9256 19.2901 24.8536 19.6687 25.8385 19.6687V19.1687C24.9839 19.1687 24.1823 18.8411 23.5792 18.2464L23.2281 18.6025ZM23.2282 13.4459C21.7862 14.8673 21.7862 17.1811 23.2282 18.6025L23.5792 18.2464C22.3358 17.0208 22.3358 15.0276 23.5792 13.802L23.2282 13.4459Z" fill="#B8B8B8"/>
</svg>
