<svg width="26" height="40" viewBox="0 0 26 40" fill="none" xmlns="http://www.w3.org/2000/svg">
<path fill-rule="evenodd" clip-rule="evenodd" d="M19.5 7.77778V10.6283L26 14.005V36.8522C26 38.6906 24.2495 40 22.098 40H3.89805C1.7485 40 0 38.6906 0 36.8522V14.01L6.5 10.5844V7.77778H4.55V0H21.45V7.77778H19.5ZM18.85 2.22222H7.15V5.55556H18.85V2.22222ZM22.0981 37.7778H3.89805C3.1824 37.7778 2.6 37.465 2.6 36.8522V15.2506L9.1 11.825V7.77778H16.9V11.8783L23.4 15.255V19.4444H5.85V31.6667H23.4V36.8522C23.4 37.465 22.8157 37.7778 22.0981 37.7778ZM23.4 30.5556V20.5556H7.15V30.5556H23.4Z" fill="#B8B8B8"/>
</svg>
