<svg width="32" height="42" viewBox="0 0 32 42" fill="none" xmlns="http://www.w3.org/2000/svg">
<path fill-rule="evenodd" clip-rule="evenodd" d="M24.0769 10.1235V7.47059H26.9615C27.2806 7.47059 27.5385 7.20706 27.5385 6.88235V1.58824C27.5385 1.26353 27.2806 1 26.9615 1H5.03846C4.71942 1 4.46154 1.26353 4.46154 1.58824V6.88235C4.46154 7.20706 4.71942 7.47059 5.03846 7.47059H7.92308V10.1294C3.70346 12.3835 1 16.3506 1 20.3712V28.8271C1 33.2818 1.89365 36.3559 3.73173 38.2229C6.2994 40.8298 10.2423 40.8171 14.8083 40.8025L14.8433 40.8024L16 40.7988L17.1567 40.8018L17.4518 40.8028H17.4533H17.4548H17.4563H17.4578H17.4592C17.7385 40.8037 18.0153 40.8047 18.2898 40.8047C22.3883 40.8047 25.9087 40.6188 28.2688 38.2218C30.1063 36.3559 31 33.2824 31 28.8276V20.3712C31 16.2941 28.2965 12.3253 24.0769 10.1235ZM26.3846 6.29412H23.5H22.3462V2.17647H26.3846V6.29412ZM15.4231 2.17647H10.8077V6.29412H15.4231V2.17647ZM16.5769 2.17647H21.1923V6.29412H16.5769V2.17647ZM9.65385 2.17647H5.61538V6.29412H8.5H9.65385V2.17647ZM22.9231 7.47059V9.82353H9.07692V7.47059H22.9231ZM27.4542 37.3894C29.0644 35.7541 29.8462 32.9535 29.8462 28.8276V21H27.5385C27.2194 21 26.9615 20.7365 26.9615 20.4118C26.9615 20.0871 27.2194 19.8235 27.5385 19.8235H29.8219C29.5831 16.2765 27.0521 12.8694 23.2219 11H8.78096C4.95192 12.9212 2.41981 16.3265 2.17808 19.8235H23.5C23.819 19.8235 24.0769 20.0871 24.0769 20.4118C24.0769 20.7365 23.819 21 23.5 21H2.15385V28.8276C2.15385 29.3806 2.17 29.9065 2.19885 30.4112H28.6923C29.0113 30.4112 29.2692 30.6747 29.2692 30.9994C29.2692 31.3241 29.0113 31.5876 28.6923 31.5876H2.29404C2.58308 34.2365 3.32558 36.1494 4.54635 37.3888C6.77856 39.656 10.5055 39.6418 14.8252 39.6253L14.8381 39.6253L16 39.6224L17.1619 39.6265L17.1807 39.6265C21.4916 39.6424 25.223 39.6561 27.4542 37.3894Z" fill="#B8B8B8"/>
<path d="M24.0769 7.47059V7.22059H23.8269V7.47059H24.0769ZM24.0769 10.1235H23.8269V10.2751L23.9613 10.3452L24.0769 10.1235ZM7.92308 7.47059H8.17308V7.22059H7.92308V7.47059ZM7.92308 10.1294L8.04087 10.3499L8.17308 10.2793V10.1294H7.92308ZM3.73173 38.2229L3.55358 38.3983L3.55362 38.3984L3.73173 38.2229ZM14.8083 40.8025L14.8091 41.0525H14.8091L14.8083 40.8025ZM14.8433 40.8024L14.8425 40.5524H14.8425L14.8433 40.8024ZM16 40.7988L16.0006 40.5488L15.9992 40.5488L16 40.7988ZM17.1567 40.8018L17.1576 40.5518H17.1574L17.1567 40.8018ZM17.4518 40.8028L17.451 41.0528H17.4518V40.8028ZM17.4592 40.8028L17.46 40.5528H17.4592V40.8028ZM28.2688 38.2218L28.0907 38.0463L28.0907 38.0464L28.2688 38.2218ZM26.3846 6.29412V6.54412H26.6346V6.29412H26.3846ZM22.3462 6.29412H22.0962V6.54412H22.3462V6.29412ZM22.3462 2.17647V1.92647H22.0962V2.17647H22.3462ZM26.3846 2.17647H26.6346V1.92647H26.3846V2.17647ZM10.8077 2.17647V1.92647H10.5577V2.17647H10.8077ZM15.4231 2.17647H15.6731V1.92647H15.4231V2.17647ZM10.8077 6.29412H10.5577V6.54412H10.8077V6.29412ZM15.4231 6.29412V6.54412H15.6731V6.29412H15.4231ZM21.1923 2.17647H21.4423V1.92647H21.1923V2.17647ZM16.5769 2.17647V1.92647H16.3269V2.17647H16.5769ZM21.1923 6.29412V6.54412H21.4423V6.29412H21.1923ZM16.5769 6.29412H16.3269V6.54412H16.5769V6.29412ZM5.61538 2.17647V1.92647H5.36538V2.17647H5.61538ZM9.65385 2.17647H9.90385V1.92647H9.65385V2.17647ZM5.61538 6.29412H5.36538V6.54412H5.61538V6.29412ZM9.65385 6.29412V6.54412H9.90385V6.29412H9.65385ZM22.9231 9.82353V10.0735H23.1731V9.82353H22.9231ZM22.9231 7.47059H23.1731V7.22059H22.9231V7.47059ZM9.07692 9.82353H8.82692V10.0735H9.07692V9.82353ZM9.07692 7.47059V7.22059H8.82692V7.47059H9.07692ZM27.4542 37.3894L27.2761 37.214L27.2761 37.214L27.4542 37.3894ZM29.8462 21H30.0962V20.75H29.8462V21ZM29.8219 19.8235V20.0735H30.0893L30.0714 19.8067L29.8219 19.8235ZM23.2219 11L23.3316 10.7753L23.2797 10.75H23.2219V11ZM8.78096 11V10.75H8.72176L8.66885 10.7765L8.78096 11ZM2.17808 19.8235L1.92867 19.8063L1.9102 20.0735H2.17808V19.8235ZM2.15385 21V20.75H1.90385V21H2.15385ZM2.19885 30.4112L1.94925 30.4254L1.96273 30.6612H2.19885V30.4112ZM2.29404 31.5876V31.3376H2.01527L2.04551 31.6148L2.29404 31.5876ZM4.54635 37.3888L4.72449 37.2134L4.72446 37.2134L4.54635 37.3888ZM14.8252 39.6253L14.8243 39.3753H14.8243L14.8252 39.6253ZM14.8381 39.6253L14.8374 39.3753H14.8372L14.8381 39.6253ZM16 39.6224L16.0009 39.3723L15.9994 39.3724L16 39.6224ZM17.1619 39.6265L17.1628 39.3765H17.1628L17.1619 39.6265ZM17.1807 39.6265L17.1816 39.3765H17.1816L17.1807 39.6265ZM23.8269 7.47059V10.1235H24.3269V7.47059H23.8269ZM26.9615 7.22059H24.0769V7.72059H26.9615V7.22059ZM27.2885 6.88235C27.2885 7.07375 27.1378 7.22059 26.9615 7.22059V7.72059C27.4234 7.72059 27.7885 7.34037 27.7885 6.88235H27.2885ZM27.2885 1.58824V6.88235H27.7885V1.58824H27.2885ZM26.9615 1.25C27.1378 1.25 27.2885 1.39684 27.2885 1.58824H27.7885C27.7885 1.13022 27.4234 0.75 26.9615 0.75V1.25ZM5.03846 1.25H26.9615V0.75H5.03846V1.25ZM4.71154 1.58824C4.71154 1.39684 4.86221 1.25 5.03846 1.25V0.75C4.57664 0.75 4.21154 1.13022 4.21154 1.58824H4.71154ZM4.71154 6.88235V1.58824H4.21154V6.88235H4.71154ZM5.03846 7.22059C4.86221 7.22059 4.71154 7.07375 4.71154 6.88235H4.21154C4.21154 7.34037 4.57664 7.72059 5.03846 7.72059V7.22059ZM7.92308 7.22059H5.03846V7.72059H7.92308V7.22059ZM8.17308 10.1294V7.47059H7.67308V10.1294H8.17308ZM1.25 20.3712C1.25 16.4634 3.88279 12.5712 8.04087 10.3499L7.80528 9.9089C3.52414 12.1959 0.75 16.2378 0.75 20.3712H1.25ZM1.25 28.8271V20.3712H0.75V28.8271H1.25ZM3.90988 38.0476C2.1411 36.2509 1.25 33.2591 1.25 28.8271H0.75C0.75 33.3044 1.64621 36.4609 3.55358 38.3983L3.90988 38.0476ZM14.8075 40.5525C12.5187 40.5598 10.4147 40.5658 8.56277 40.2494C6.71684 39.9339 5.14478 39.3013 3.90984 38.0475L3.55362 38.3984C4.88636 39.7515 6.5696 40.416 8.47854 40.7422C10.3815 41.0674 12.5319 41.0598 14.8091 41.0525L14.8075 40.5525ZM14.8425 40.5524L14.8075 40.5525L14.8091 41.0525L14.8441 41.0524L14.8425 40.5524ZM15.9992 40.5488L14.8425 40.5524L14.844 41.0524L16.0008 41.0488L15.9992 40.5488ZM17.1574 40.5518L16.0006 40.5488L15.9994 41.0488L17.1561 41.0518L17.1574 40.5518ZM17.4527 40.5528L17.1576 40.5518L17.1559 41.0518L17.451 41.0528L17.4527 40.5528ZM17.4533 40.5528H17.4518V41.0528H17.4533V40.5528ZM17.4548 40.5528H17.4533V41.0528H17.4548V40.5528ZM17.4563 40.5528H17.4548V41.0528H17.4563V40.5528ZM17.4578 40.5528H17.4563V41.0528H17.4578V40.5528ZM17.4592 40.5528H17.4578V41.0528H17.4592V40.5528ZM18.2898 40.5547C18.0158 40.5547 17.7395 40.5537 17.46 40.5528L17.4583 41.0528C17.7376 41.0537 18.0147 41.0547 18.2898 41.0547V40.5547ZM28.0907 38.0464C25.8151 40.3576 22.4073 40.5547 18.2898 40.5547V41.0547C22.3692 41.0547 26.0022 40.8801 28.447 38.3972L28.0907 38.0464ZM30.75 28.8276C30.75 33.2597 29.8589 36.2509 28.0907 38.0463L28.447 38.3972C30.3538 36.4609 31.25 33.305 31.25 28.8276H30.75ZM30.75 20.3712V28.8276H31.25V20.3712H30.75ZM23.9613 10.3452C28.1164 12.5133 30.75 16.406 30.75 20.3712H31.25C31.25 16.1822 28.4767 12.1373 24.1926 9.90189L23.9613 10.3452ZM23.5 6.54412H26.3846V6.04412H23.5V6.54412ZM22.3462 6.54412H23.5V6.04412H22.3462V6.54412ZM22.0962 2.17647V6.29412H22.5962V2.17647H22.0962ZM26.3846 1.92647H22.3462V2.42647H26.3846V1.92647ZM26.6346 6.29412V2.17647H26.1346V6.29412H26.6346ZM10.8077 2.42647H15.4231V1.92647H10.8077V2.42647ZM11.0577 6.29412V2.17647H10.5577V6.29412H11.0577ZM15.4231 6.04412H10.8077V6.54412H15.4231V6.04412ZM15.1731 2.17647V6.29412H15.6731V2.17647H15.1731ZM21.1923 1.92647H16.5769V2.42647H21.1923V1.92647ZM21.4423 6.29412V2.17647H20.9423V6.29412H21.4423ZM16.5769 6.54412H21.1923V6.04412H16.5769V6.54412ZM16.3269 2.17647V6.29412H16.8269V2.17647H16.3269ZM5.61538 2.42647H9.65385V1.92647H5.61538V2.42647ZM5.86538 6.29412V2.17647H5.36538V6.29412H5.86538ZM8.5 6.04412H5.61538V6.54412H8.5V6.04412ZM9.65385 6.04412H8.5V6.54412H9.65385V6.04412ZM9.40385 2.17647V6.29412H9.90385V2.17647H9.40385ZM23.1731 9.82353V7.47059H22.6731V9.82353H23.1731ZM9.07692 10.0735H22.9231V9.57353H9.07692V10.0735ZM8.82692 7.47059V9.82353H9.32692V7.47059H8.82692ZM22.9231 7.22059H9.07692V7.72059H22.9231V7.22059ZM29.5962 28.8276C29.5962 32.9357 28.815 35.6511 27.2761 37.214L27.6324 37.5648C29.3138 35.8572 30.0962 32.9714 30.0962 28.8276H29.5962ZM29.5962 21V28.8276H30.0962V21H29.5962ZM27.5385 21.25H29.8462V20.75H27.5385V21.25ZM26.7115 20.4118C26.7115 20.8698 27.0766 21.25 27.5385 21.25V20.75C27.3622 20.75 27.2115 20.6032 27.2115 20.4118H26.7115ZM27.5385 19.5735C27.0766 19.5735 26.7115 19.9538 26.7115 20.4118H27.2115C27.2115 20.2204 27.3622 20.0735 27.5385 20.0735V19.5735ZM29.8219 19.5735H27.5385V20.0735H29.8219V19.5735ZM23.1123 11.2247C26.8798 13.0635 29.3409 16.4007 29.5725 19.8403L30.0714 19.8067C29.8253 16.1522 27.2244 12.6753 23.3316 10.7753L23.1123 11.2247ZM8.78096 11.25H23.2219V10.75H8.78096V11.25ZM2.42748 19.8408C2.66175 16.4516 5.12357 13.1148 8.89308 11.2235L8.66885 10.7765C4.78027 12.7276 2.17786 16.2013 1.92867 19.8063L2.42748 19.8408ZM23.5 19.5735H2.17808V20.0735H23.5V19.5735ZM24.3269 20.4118C24.3269 19.9538 23.9618 19.5735 23.5 19.5735V20.0735C23.6763 20.0735 23.8269 20.2204 23.8269 20.4118H24.3269ZM23.5 21.25C23.9618 21.25 24.3269 20.8698 24.3269 20.4118H23.8269C23.8269 20.6032 23.6763 20.75 23.5 20.75V21.25ZM2.15385 21.25H23.5V20.75H2.15385V21.25ZM2.40385 28.8276V21H1.90385V28.8276H2.40385ZM2.44844 30.3969C2.41986 29.8968 2.40385 29.3757 2.40385 28.8276H1.90385C1.90385 29.3855 1.92014 29.9161 1.94925 30.4254L2.44844 30.3969ZM28.6923 30.1612H2.19885V30.6612H28.6923V30.1612ZM29.5192 30.9994C29.5192 30.5414 29.1541 30.1612 28.6923 30.1612V30.6612C28.8686 30.6612 29.0192 30.808 29.0192 30.9994H29.5192ZM28.6923 31.8376C29.1541 31.8376 29.5192 31.4574 29.5192 30.9994H29.0192C29.0192 31.1908 28.8686 31.3376 28.6923 31.3376V31.8376ZM2.29404 31.8376H28.6923V31.3376H2.29404V31.8376ZM4.72446 37.2134C3.55934 36.0305 2.82858 34.1816 2.54256 31.5605L2.04551 31.6148C2.33758 34.2913 3.09181 36.2683 4.36824 37.5643L4.72446 37.2134ZM14.8243 39.3753C12.6588 39.3836 10.6689 39.3905 8.94215 39.1165C7.21916 38.8431 5.78855 38.2942 4.72449 37.2134L4.3682 37.5642C5.53635 38.7507 7.08532 39.3282 8.86379 39.6104C10.6385 39.8919 12.672 39.8835 14.8262 39.8753L14.8243 39.3753ZM14.8372 39.3753L14.8243 39.3753L14.8261 39.8753L14.839 39.8753L14.8372 39.3753ZM15.9994 39.3724L14.8374 39.3753L14.8387 39.8753L16.0006 39.8724L15.9994 39.3724ZM17.1628 39.3765L16.0009 39.3724L15.9991 39.8724L17.161 39.8765L17.1628 39.3765ZM17.1816 39.3765L17.1628 39.3765L17.161 39.8765L17.1798 39.8765L17.1816 39.3765ZM27.2761 37.214C26.2125 38.2945 24.7811 38.8435 23.0582 39.117C21.3315 39.3912 19.3427 39.3845 17.1816 39.3765L17.1798 39.8765C19.3296 39.8844 21.362 39.8926 23.1366 39.6108C24.9148 39.3285 26.4647 38.751 27.6324 37.5648L27.2761 37.214Z" fill="#B8B8B8"/>
<path d="M25.8077 19.8235H25.2307C24.9117 19.8235 24.6538 20.087 24.6538 20.4118C24.6538 20.7365 24.9117 21 25.2307 21H25.8077C26.1267 21 26.3846 20.7365 26.3846 20.4118C26.3846 20.087 26.1267 19.8235 25.8077 19.8235Z" fill="#B8B8B8" stroke="#B8B8B8" stroke-width="0.5"/>
<path d="M14.2046 22.2353C13.9191 22.0871 13.5671 22.2024 13.4212 22.4947L10.9964 27.3394L8.57213 22.4947C8.42674 22.2024 8.0754 22.0871 7.78867 22.2353C7.50194 22.3847 7.38828 22.7424 7.53482 23.0347L10.4783 28.9171C10.4933 28.9476 10.5146 28.9718 10.5342 28.9988C10.5441 29.0112 10.5504 29.0253 10.5614 29.0376C10.6075 29.0912 10.6612 29.1341 10.7206 29.1665C10.7252 29.1688 10.7281 29.1735 10.7327 29.1771C10.7558 29.1894 10.7806 29.1953 10.8048 29.2035C10.8204 29.21 10.8354 29.2165 10.8516 29.2218C10.8994 29.2341 10.9485 29.2418 10.9969 29.2418H10.9975H10.9981C11.0466 29.2418 11.0956 29.2341 11.1435 29.2218C11.1596 29.2171 11.1746 29.2094 11.1902 29.2035C11.2144 29.1953 11.2392 29.1894 11.2623 29.1771C11.2669 29.1747 11.2698 29.17 11.2744 29.1665C11.3344 29.1335 11.3875 29.0912 11.4331 29.0382C11.4446 29.0259 11.451 29.0112 11.4614 28.9976C11.4804 28.9718 11.5012 28.9476 11.5167 28.9171L14.4608 23.0347C14.605 22.7424 14.4914 22.3847 14.2046 22.2353Z" fill="#B8B8B8" stroke="#B8B8B8" stroke-width="0.5"/>
<path d="M17.7307 22.1765C17.4117 22.1765 17.1538 22.44 17.1538 22.7647V28.6471C17.1538 28.9718 17.4117 29.2353 17.7307 29.2353C18.0498 29.2353 18.3077 28.9718 18.3077 28.6471V22.7647C18.3077 22.44 18.0498 22.1765 17.7307 22.1765Z" fill="#B8B8B8" stroke="#B8B8B8" stroke-width="0.5"/>
<path d="M25.2307 22.7647H21.1923C20.8732 22.7647 20.6154 23.0282 20.6154 23.3529C20.6154 23.6777 20.8732 23.9412 21.1923 23.9412H22.3461V28.6471C22.3461 28.9718 22.604 29.2353 22.923 29.2353C23.2421 29.2353 23.5 28.9718 23.5 28.6471V23.9412H25.2307C25.5498 23.9412 25.8077 23.6777 25.8077 23.3529C25.8077 23.0282 25.5498 22.7647 25.2307 22.7647Z" fill="#B8B8B8" stroke="#B8B8B8" stroke-width="0.5"/>
</svg>
